<svg xmlns="http://www.w3.org/2000/svg" xmlns:xlink="http://www.w3.org/1999/xlink" width="2040" zoomAndPan="magnify" viewBox="0 0 1530 1529.999932" height="2040" preserveAspectRatio="xMidYMid meet" version="1.0"><defs><g/><clipPath id="ddf05e5324"><path d="M 74.863281 74.863281 L 1454.863281 74.863281 L 1454.863281 1454.863281 L 74.863281 1454.863281 Z M 74.863281 74.863281 " clip-rule="nonzero"/></clipPath><clipPath id="3370adf68c"><path d="M 1454.863281 764.863281 C 1454.863281 776.15625 1454.585938 787.441406 1454.035156 798.722656 C 1453.480469 810 1452.648438 821.257812 1451.542969 832.496094 C 1450.433594 843.734375 1449.054688 854.9375 1447.398438 866.109375 C 1445.738281 877.277344 1443.808594 888.402344 1441.605469 899.476562 C 1439.402344 910.550781 1436.929688 921.566406 1434.1875 932.519531 C 1431.441406 943.476562 1428.433594 954.355469 1425.152344 965.160156 C 1421.875 975.96875 1418.335938 986.6875 1414.53125 997.320312 C 1410.726562 1007.949219 1406.664062 1018.484375 1402.339844 1028.917969 C 1398.019531 1039.347656 1393.445312 1049.667969 1388.617188 1059.878906 C 1383.789062 1070.085938 1378.714844 1080.167969 1373.390625 1090.128906 C 1368.066406 1100.085938 1362.503906 1109.910156 1356.699219 1119.59375 C 1350.890625 1129.28125 1344.851562 1138.820312 1338.578125 1148.207031 C 1332.304688 1157.597656 1325.804688 1166.828125 1319.078125 1175.898438 C 1312.351562 1184.96875 1305.40625 1193.867188 1298.242188 1202.597656 C 1291.078125 1211.324219 1283.703125 1219.875 1276.121094 1228.242188 C 1268.539062 1236.609375 1260.753906 1244.785156 1252.769531 1252.769531 C 1244.785156 1260.753906 1236.609375 1268.539062 1228.242188 1276.121094 C 1219.875 1283.703125 1211.324219 1291.078125 1202.597656 1298.242188 C 1193.867188 1305.40625 1184.96875 1312.351562 1175.898438 1319.078125 C 1166.828125 1325.804688 1157.597656 1332.304688 1148.207031 1338.578125 C 1138.820312 1344.851562 1129.28125 1350.890625 1119.59375 1356.699219 C 1109.910156 1362.503906 1100.085938 1368.066406 1090.128906 1373.390625 C 1080.167969 1378.714844 1070.085938 1383.789062 1059.878906 1388.617188 C 1049.667969 1393.445312 1039.347656 1398.019531 1028.917969 1402.339844 C 1018.484375 1406.664062 1007.949219 1410.726562 997.320312 1414.53125 C 986.6875 1418.335938 975.96875 1421.875 965.160156 1425.152344 C 954.355469 1428.433594 943.476562 1431.441406 932.519531 1434.1875 C 921.566406 1436.929688 910.550781 1439.402344 899.476562 1441.605469 C 888.402344 1443.808594 877.277344 1445.738281 866.109375 1447.398438 C 854.9375 1449.054688 843.734375 1450.433594 832.496094 1451.542969 C 821.257812 1452.648438 810 1453.480469 798.722656 1454.035156 C 787.441406 1454.585938 776.15625 1454.863281 764.863281 1454.863281 C 753.574219 1454.863281 742.285156 1454.585938 731.007812 1454.035156 C 719.730469 1453.480469 708.472656 1452.648438 697.234375 1451.542969 C 685.996094 1450.433594 674.789062 1449.054688 663.621094 1447.398438 C 652.449219 1445.738281 641.328125 1443.808594 630.253906 1441.605469 C 619.175781 1439.402344 608.164062 1436.929688 597.207031 1434.1875 C 586.253906 1431.441406 575.375 1428.433594 564.570312 1425.152344 C 553.761719 1421.875 543.042969 1418.335938 532.410156 1414.53125 C 521.777344 1410.726562 511.246094 1406.664062 500.8125 1402.339844 C 490.378906 1398.019531 480.058594 1393.445312 469.851562 1388.617188 C 459.644531 1383.789062 449.558594 1378.714844 439.601562 1373.390625 C 429.640625 1368.066406 419.820312 1362.503906 410.132812 1356.699219 C 400.449219 1350.890625 390.910156 1344.851562 381.519531 1338.578125 C 372.132812 1332.304688 362.902344 1325.804688 353.832031 1319.078125 C 344.761719 1312.351562 335.863281 1305.40625 327.132812 1298.242188 C 318.40625 1291.078125 309.855469 1283.703125 301.488281 1276.121094 C 293.121094 1268.539062 284.945312 1260.753906 276.960938 1252.769531 C 268.976562 1244.785156 261.191406 1236.609375 253.609375 1228.242188 C 246.023438 1219.875 238.652344 1211.324219 231.488281 1202.597656 C 224.324219 1193.867188 217.378906 1184.96875 210.652344 1175.898438 C 203.925781 1166.828125 197.425781 1157.597656 191.152344 1148.207031 C 184.878906 1138.820312 178.835938 1129.28125 173.03125 1119.59375 C 167.226562 1109.910156 161.664062 1100.085938 156.339844 1090.128906 C 151.015625 1080.167969 145.941406 1070.085938 141.113281 1059.878906 C 136.285156 1049.667969 131.710938 1039.347656 127.386719 1028.917969 C 123.066406 1018.484375 119.003906 1007.949219 115.199219 997.320312 C 111.394531 986.6875 107.855469 975.96875 104.574219 965.160156 C 101.296875 954.355469 98.289062 943.476562 95.542969 932.519531 C 92.800781 921.566406 90.324219 910.550781 88.125 899.476562 C 85.921875 888.402344 83.988281 877.277344 82.332031 866.109375 C 80.675781 854.9375 79.292969 843.734375 78.1875 832.496094 C 77.082031 821.257812 76.25 810 75.695312 798.722656 C 75.140625 787.441406 74.863281 776.15625 74.863281 764.863281 C 74.863281 753.574219 75.140625 742.285156 75.695312 731.007812 C 76.25 719.730469 77.082031 708.472656 78.1875 697.234375 C 79.292969 685.996094 80.675781 674.789062 82.332031 663.621094 C 83.988281 652.449219 85.921875 641.328125 88.125 630.253906 C 90.324219 619.175781 92.800781 608.164062 95.542969 597.207031 C 98.289062 586.253906 101.296875 575.375 104.574219 564.570312 C 107.855469 553.761719 111.394531 543.042969 115.199219 532.410156 C 119.003906 521.777344 123.066406 511.246094 127.386719 500.8125 C 131.710938 490.378906 136.285156 480.058594 141.113281 469.851562 C 145.941406 459.644531 151.015625 449.558594 156.339844 439.601562 C 161.664062 429.640625 167.226562 419.820312 173.03125 410.132812 C 178.835938 400.449219 184.878906 390.910156 191.152344 381.519531 C 197.425781 372.132812 203.925781 362.902344 210.652344 353.832031 C 217.378906 344.761719 224.324219 335.863281 231.488281 327.132812 C 238.652344 318.40625 246.023438 309.855469 253.609375 301.488281 C 261.191406 293.121094 268.976562 284.945312 276.960938 276.960938 C 284.945312 268.976562 293.121094 261.191406 301.488281 253.609375 C 309.855469 246.023438 318.40625 238.652344 327.132812 231.488281 C 335.863281 224.324219 344.761719 217.378906 353.832031 210.652344 C 362.902344 203.925781 372.132812 197.425781 381.519531 191.152344 C 390.910156 184.878906 400.449219 178.835938 410.132812 173.03125 C 419.820312 167.226562 429.640625 161.664062 439.601562 156.339844 C 449.558594 151.015625 459.644531 145.941406 469.851562 141.113281 C 480.058594 136.285156 490.378906 131.710938 500.8125 127.386719 C 511.246094 123.066406 521.777344 119.003906 532.410156 115.199219 C 543.042969 111.394531 553.761719 107.855469 564.570312 104.574219 C 575.375 101.296875 586.253906 98.289062 597.207031 95.542969 C 608.164062 92.800781 619.175781 90.324219 630.253906 88.121094 C 641.328125 85.921875 652.449219 83.988281 663.621094 82.332031 C 674.792969 80.675781 685.996094 79.292969 697.234375 78.1875 C 708.472656 77.082031 719.730469 76.25 731.007812 75.695312 C 742.285156 75.140625 753.574219 74.863281 764.863281 74.863281 C 776.15625 74.863281 787.441406 75.140625 798.722656 75.695312 C 810 76.25 821.257812 77.082031 832.496094 78.1875 C 843.734375 79.292969 854.9375 80.675781 866.109375 82.332031 C 877.277344 83.988281 888.402344 85.921875 899.476562 88.121094 C 910.550781 90.324219 921.566406 92.800781 932.519531 95.542969 C 943.476562 98.289062 954.355469 101.296875 965.160156 104.574219 C 975.96875 107.855469 986.6875 111.394531 997.320312 115.199219 C 1007.949219 119.003906 1018.484375 123.066406 1028.917969 127.386719 C 1039.347656 131.710938 1049.667969 136.285156 1059.878906 141.113281 C 1070.085938 145.941406 1080.167969 151.015625 1090.128906 156.339844 C 1100.085938 161.664062 1109.910156 167.226562 1119.59375 173.03125 C 1129.28125 178.835938 1138.820312 184.878906 1148.207031 191.152344 C 1157.597656 197.425781 1166.828125 203.925781 1175.898438 210.652344 C 1184.96875 217.378906 1193.867188 224.324219 1202.597656 231.488281 C 1211.324219 238.652344 1219.875 246.023438 1228.242188 253.609375 C 1236.609375 261.191406 1244.785156 268.976562 1252.769531 276.960938 C 1260.753906 284.945312 1268.539062 293.121094 1276.121094 301.488281 C 1283.703125 309.855469 1291.078125 318.40625 1298.242188 327.132812 C 1305.40625 335.863281 1312.351562 344.761719 1319.078125 353.832031 C 1325.804688 362.902344 1332.304688 372.132812 1338.578125 381.519531 C 1344.851562 390.910156 1350.890625 400.449219 1356.699219 410.132812 C 1362.503906 419.820312 1368.066406 429.640625 1373.390625 439.601562 C 1378.714844 449.558594 1383.789062 459.644531 1388.617188 469.851562 C 1393.445312 480.058594 1398.019531 490.378906 1402.339844 500.8125 C 1406.664062 511.246094 1410.726562 521.777344 1414.53125 532.410156 C 1418.335938 543.042969 1421.875 553.761719 1425.152344 564.570312 C 1428.433594 575.375 1431.441406 586.253906 1434.1875 597.207031 C 1436.929688 608.164062 1439.402344 619.175781 1441.605469 630.253906 C 1443.808594 641.328125 1445.738281 652.449219 1447.398438 663.621094 C 1449.054688 674.789062 1450.433594 685.996094 1451.542969 697.234375 C 1452.648438 708.472656 1453.480469 719.730469 1454.035156 731.007812 C 1454.585938 742.285156 1454.863281 753.574219 1454.863281 764.863281 Z M 1454.863281 764.863281 " clip-rule="nonzero"/></clipPath><radialGradient gradientTransform="matrix(1, 0, 0, 1, 74.864937, 74.864847)" gradientUnits="userSpaceOnUse" r="887.083643" cx="621.00003" id="84a666c18e" cy="103.500003" fx="621.00003" fy="103.500003"><stop stop-opacity="1" stop-color="rgb(38.42926%, 78.039551%, 79.998779%)" offset="0"/><stop stop-opacity="1" stop-color="rgb(38.42926%, 78.039551%, 79.998779%)" offset="0.125"/><stop stop-opacity="1" stop-color="rgb(38.395691%, 78.001404%, 79.977417%)" offset="0.179688"/><stop stop-opacity="1" stop-color="rgb(38.269043%, 77.861023%, 79.899597%)" offset="0.191406"/><stop stop-opacity="1" stop-color="rgb(38.084412%, 77.655029%, 79.78363%)" offset="0.195312"/><stop stop-opacity="1" stop-color="rgb(37.898254%, 77.449036%, 79.669189%)" offset="0.199219"/><stop stop-opacity="1" stop-color="rgb(37.713623%, 77.243042%, 79.553223%)" offset="0.203125"/><stop stop-opacity="1" stop-color="rgb(37.527466%, 77.037048%, 79.438782%)" offset="0.207031"/><stop stop-opacity="1" stop-color="rgb(37.342834%, 76.831055%, 79.322815%)" offset="0.210938"/><stop stop-opacity="1" stop-color="rgb(37.158203%, 76.623535%, 79.206848%)" offset="0.214844"/><stop stop-opacity="1" stop-color="rgb(36.972046%, 76.417542%, 79.092407%)" offset="0.21875"/><stop stop-opacity="1" stop-color="rgb(36.787415%, 76.211548%, 78.97644%)" offset="0.222656"/><stop stop-opacity="1" stop-color="rgb(36.601257%, 76.005554%, 78.862%)" offset="0.226562"/><stop stop-opacity="1" stop-color="rgb(36.416626%, 75.799561%, 78.746033%)" offset="0.230469"/><stop stop-opacity="1" stop-color="rgb(36.230469%, 75.593567%, 78.630066%)" offset="0.234375"/><stop stop-opacity="1" stop-color="rgb(36.045837%, 75.387573%, 78.515625%)" offset="0.238281"/><stop stop-opacity="1" stop-color="rgb(35.85968%, 75.18158%, 78.399658%)" offset="0.242188"/><stop stop-opacity="1" stop-color="rgb(35.675049%, 74.975586%, 78.285217%)" offset="0.246094"/><stop stop-opacity="1" stop-color="rgb(35.488892%, 74.768066%, 78.16925%)" offset="0.25"/><stop stop-opacity="1" stop-color="rgb(35.30426%, 74.562073%, 78.05481%)" offset="0.253906"/><stop stop-opacity="1" stop-color="rgb(35.118103%, 74.356079%, 77.938843%)" offset="0.257812"/><stop stop-opacity="1" stop-color="rgb(34.933472%, 74.150085%, 77.822876%)" offset="0.261719"/><stop stop-opacity="1" stop-color="rgb(34.74884%, 73.944092%, 77.708435%)" offset="0.265625"/><stop stop-opacity="1" stop-color="rgb(34.562683%, 73.738098%, 77.592468%)" offset="0.269531"/><stop stop-opacity="1" stop-color="rgb(34.378052%, 73.532104%, 77.478027%)" offset="0.273438"/><stop stop-opacity="1" stop-color="rgb(34.191895%, 73.326111%, 77.362061%)" offset="0.277344"/><stop stop-opacity="1" stop-color="rgb(34.007263%, 73.120117%, 77.246094%)" offset="0.28125"/><stop stop-opacity="1" stop-color="rgb(33.821106%, 72.912598%, 77.131653%)" offset="0.285156"/><stop stop-opacity="1" stop-color="rgb(33.636475%, 72.706604%, 77.015686%)" offset="0.289062"/><stop stop-opacity="1" stop-color="rgb(33.450317%, 72.50061%, 76.901245%)" offset="0.292969"/><stop stop-opacity="1" stop-color="rgb(33.265686%, 72.294617%, 76.785278%)" offset="0.296875"/><stop stop-opacity="1" stop-color="rgb(33.079529%, 72.088623%, 76.669312%)" offset="0.300781"/><stop stop-opacity="1" stop-color="rgb(32.894897%, 71.882629%, 76.554871%)" offset="0.304688"/><stop stop-opacity="1" stop-color="rgb(32.710266%, 71.676636%, 76.438904%)" offset="0.308594"/><stop stop-opacity="1" stop-color="rgb(32.524109%, 71.470642%, 76.324463%)" offset="0.3125"/><stop stop-opacity="1" stop-color="rgb(32.339478%, 71.264648%, 76.208496%)" offset="0.316406"/><stop stop-opacity="1" stop-color="rgb(32.15332%, 71.057129%, 76.092529%)" offset="0.320312"/><stop stop-opacity="1" stop-color="rgb(31.968689%, 70.851135%, 75.978088%)" offset="0.324219"/><stop stop-opacity="1" stop-color="rgb(31.782532%, 70.645142%, 75.862122%)" offset="0.328125"/><stop stop-opacity="1" stop-color="rgb(31.5979%, 70.439148%, 75.747681%)" offset="0.332031"/><stop stop-opacity="1" stop-color="rgb(31.411743%, 70.233154%, 75.631714%)" offset="0.335938"/><stop stop-opacity="1" stop-color="rgb(31.227112%, 70.027161%, 75.515747%)" offset="0.339844"/><stop stop-opacity="1" stop-color="rgb(31.040955%, 69.821167%, 75.401306%)" offset="0.34375"/><stop stop-opacity="1" stop-color="rgb(30.856323%, 69.615173%, 75.285339%)" offset="0.347656"/><stop stop-opacity="1" stop-color="rgb(30.670166%, 69.40918%, 75.170898%)" offset="0.351562"/><stop stop-opacity="1" stop-color="rgb(30.485535%, 69.20166%, 75.054932%)" offset="0.355469"/><stop stop-opacity="1" stop-color="rgb(30.300903%, 68.995667%, 74.938965%)" offset="0.359375"/><stop stop-opacity="1" stop-color="rgb(30.114746%, 68.789673%, 74.824524%)" offset="0.363281"/><stop stop-opacity="1" stop-color="rgb(29.930115%, 68.583679%, 74.708557%)" offset="0.367188"/><stop stop-opacity="1" stop-color="rgb(29.743958%, 68.377686%, 74.594116%)" offset="0.371094"/><stop stop-opacity="1" stop-color="rgb(29.559326%, 68.171692%, 74.478149%)" offset="0.375"/><stop stop-opacity="1" stop-color="rgb(29.373169%, 67.965698%, 74.362183%)" offset="0.378906"/><stop stop-opacity="1" stop-color="rgb(29.188538%, 67.759705%, 74.247742%)" offset="0.382812"/><stop stop-opacity="1" stop-color="rgb(29.00238%, 67.553711%, 74.131775%)" offset="0.386719"/><stop stop-opacity="1" stop-color="rgb(28.817749%, 67.346191%, 74.017334%)" offset="0.390625"/><stop stop-opacity="1" stop-color="rgb(28.631592%, 67.140198%, 73.901367%)" offset="0.394531"/><stop stop-opacity="1" stop-color="rgb(28.44696%, 66.934204%, 73.7854%)" offset="0.398438"/><stop stop-opacity="1" stop-color="rgb(28.262329%, 66.72821%, 73.670959%)" offset="0.402344"/><stop stop-opacity="1" stop-color="rgb(28.076172%, 66.522217%, 73.554993%)" offset="0.40625"/><stop stop-opacity="1" stop-color="rgb(27.891541%, 66.316223%, 73.440552%)" offset="0.410156"/><stop stop-opacity="1" stop-color="rgb(27.705383%, 66.110229%, 73.324585%)" offset="0.414062"/><stop stop-opacity="1" stop-color="rgb(27.520752%, 65.904236%, 73.208618%)" offset="0.417969"/><stop stop-opacity="1" stop-color="rgb(27.334595%, 65.698242%, 73.094177%)" offset="0.421875"/><stop stop-opacity="1" stop-color="rgb(27.149963%, 65.490723%, 72.97821%)" offset="0.425781"/><stop stop-opacity="1" stop-color="rgb(26.963806%, 65.284729%, 72.86377%)" offset="0.429688"/><stop stop-opacity="1" stop-color="rgb(26.779175%, 65.078735%, 72.747803%)" offset="0.433594"/><stop stop-opacity="1" stop-color="rgb(26.593018%, 64.872742%, 72.631836%)" offset="0.4375"/><stop stop-opacity="1" stop-color="rgb(26.408386%, 64.666748%, 72.517395%)" offset="0.441406"/><stop stop-opacity="1" stop-color="rgb(26.223755%, 64.460754%, 72.401428%)" offset="0.445312"/><stop stop-opacity="1" stop-color="rgb(26.037598%, 64.254761%, 72.286987%)" offset="0.449219"/><stop stop-opacity="1" stop-color="rgb(25.852966%, 64.048767%, 72.171021%)" offset="0.453125"/><stop stop-opacity="1" stop-color="rgb(25.666809%, 63.842773%, 72.055054%)" offset="0.457031"/><stop stop-opacity="1" stop-color="rgb(25.482178%, 63.635254%, 71.940613%)" offset="0.460938"/><stop stop-opacity="1" stop-color="rgb(25.296021%, 63.42926%, 71.824646%)" offset="0.464844"/><stop stop-opacity="1" stop-color="rgb(25.111389%, 63.223267%, 71.710205%)" offset="0.46875"/><stop stop-opacity="1" stop-color="rgb(24.925232%, 63.017273%, 71.594238%)" offset="0.472656"/><stop stop-opacity="1" stop-color="rgb(24.740601%, 62.811279%, 71.478271%)" offset="0.476562"/><stop stop-opacity="1" stop-color="rgb(24.554443%, 62.605286%, 71.363831%)" offset="0.480469"/><stop stop-opacity="1" stop-color="rgb(24.369812%, 62.399292%, 71.247864%)" offset="0.484375"/><stop stop-opacity="1" stop-color="rgb(24.183655%, 62.193298%, 71.133423%)" offset="0.488281"/><stop stop-opacity="1" stop-color="rgb(23.999023%, 61.987305%, 71.017456%)" offset="0.492188"/><stop stop-opacity="1" stop-color="rgb(23.814392%, 61.779785%, 70.901489%)" offset="0.496094"/><stop stop-opacity="1" stop-color="rgb(23.628235%, 61.573792%, 70.787048%)" offset="0.5"/><stop stop-opacity="1" stop-color="rgb(23.443604%, 61.367798%, 70.671082%)" offset="0.503906"/><stop stop-opacity="1" stop-color="rgb(23.257446%, 61.161804%, 70.556641%)" offset="0.507812"/><stop stop-opacity="1" stop-color="rgb(23.072815%, 60.955811%, 70.440674%)" offset="0.511719"/><stop stop-opacity="1" stop-color="rgb(22.886658%, 60.749817%, 70.324707%)" offset="0.515625"/><stop stop-opacity="1" stop-color="rgb(22.702026%, 60.543823%, 70.210266%)" offset="0.519531"/><stop stop-opacity="1" stop-color="rgb(22.515869%, 60.33783%, 70.094299%)" offset="0.523438"/><stop stop-opacity="1" stop-color="rgb(22.331238%, 60.131836%, 69.979858%)" offset="0.527344"/><stop stop-opacity="1" stop-color="rgb(22.145081%, 59.924316%, 69.863892%)" offset="0.53125"/><stop stop-opacity="1" stop-color="rgb(21.960449%, 59.718323%, 69.747925%)" offset="0.535156"/><stop stop-opacity="1" stop-color="rgb(21.775818%, 59.512329%, 69.633484%)" offset="0.539062"/><stop stop-opacity="1" stop-color="rgb(21.589661%, 59.306335%, 69.517517%)" offset="0.542969"/><stop stop-opacity="1" stop-color="rgb(21.405029%, 59.100342%, 69.403076%)" offset="0.546875"/><stop stop-opacity="1" stop-color="rgb(21.218872%, 58.894348%, 69.287109%)" offset="0.550781"/><stop stop-opacity="1" stop-color="rgb(21.034241%, 58.688354%, 69.171143%)" offset="0.554688"/><stop stop-opacity="1" stop-color="rgb(20.848083%, 58.482361%, 69.056702%)" offset="0.558594"/><stop stop-opacity="1" stop-color="rgb(20.663452%, 58.276367%, 68.940735%)" offset="0.5625"/><stop stop-opacity="1" stop-color="rgb(20.477295%, 58.068848%, 68.826294%)" offset="0.566406"/><stop stop-opacity="1" stop-color="rgb(20.292664%, 57.862854%, 68.710327%)" offset="0.570312"/><stop stop-opacity="1" stop-color="rgb(20.106506%, 57.65686%, 68.59436%)" offset="0.574219"/><stop stop-opacity="1" stop-color="rgb(19.921875%, 57.450867%, 68.479919%)" offset="0.578125"/><stop stop-opacity="1" stop-color="rgb(19.735718%, 57.244873%, 68.363953%)" offset="0.582031"/><stop stop-opacity="1" stop-color="rgb(19.551086%, 57.038879%, 68.249512%)" offset="0.585938"/><stop stop-opacity="1" stop-color="rgb(19.366455%, 56.832886%, 68.133545%)" offset="0.589844"/><stop stop-opacity="1" stop-color="rgb(19.180298%, 56.626892%, 68.017578%)" offset="0.59375"/><stop stop-opacity="1" stop-color="rgb(18.995667%, 56.420898%, 67.903137%)" offset="0.597656"/><stop stop-opacity="1" stop-color="rgb(18.809509%, 56.213379%, 67.78717%)" offset="0.601562"/><stop stop-opacity="1" stop-color="rgb(18.624878%, 56.007385%, 67.672729%)" offset="0.605469"/><stop stop-opacity="1" stop-color="rgb(18.438721%, 55.801392%, 67.556763%)" offset="0.609375"/><stop stop-opacity="1" stop-color="rgb(18.254089%, 55.595398%, 67.440796%)" offset="0.613281"/><stop stop-opacity="1" stop-color="rgb(18.067932%, 55.389404%, 67.326355%)" offset="0.617188"/><stop stop-opacity="1" stop-color="rgb(17.883301%, 55.183411%, 67.210388%)" offset="0.621094"/><stop stop-opacity="1" stop-color="rgb(17.697144%, 54.977417%, 67.095947%)" offset="0.625"/><stop stop-opacity="1" stop-color="rgb(17.512512%, 54.771423%, 66.97998%)" offset="0.628906"/><stop stop-opacity="1" stop-color="rgb(17.327881%, 54.56543%, 66.864014%)" offset="0.632812"/><stop stop-opacity="1" stop-color="rgb(17.141724%, 54.35791%, 66.749573%)" offset="0.636719"/><stop stop-opacity="1" stop-color="rgb(16.957092%, 54.151917%, 66.633606%)" offset="0.640625"/><stop stop-opacity="1" stop-color="rgb(16.770935%, 53.945923%, 66.519165%)" offset="0.644531"/><stop stop-opacity="1" stop-color="rgb(16.586304%, 53.739929%, 66.403198%)" offset="0.648438"/><stop stop-opacity="1" stop-color="rgb(16.400146%, 53.533936%, 66.287231%)" offset="0.652344"/><stop stop-opacity="1" stop-color="rgb(16.215515%, 53.327942%, 66.172791%)" offset="0.65625"/><stop stop-opacity="1" stop-color="rgb(16.029358%, 53.121948%, 66.056824%)" offset="0.660156"/><stop stop-opacity="1" stop-color="rgb(15.844727%, 52.915955%, 65.942383%)" offset="0.664062"/><stop stop-opacity="1" stop-color="rgb(15.658569%, 52.709961%, 65.826416%)" offset="0.667969"/><stop stop-opacity="1" stop-color="rgb(15.473938%, 52.502441%, 65.710449%)" offset="0.671875"/><stop stop-opacity="1" stop-color="rgb(15.287781%, 52.296448%, 65.596008%)" offset="0.675781"/><stop stop-opacity="1" stop-color="rgb(15.103149%, 52.090454%, 65.480042%)" offset="0.679688"/><stop stop-opacity="1" stop-color="rgb(14.918518%, 51.88446%, 65.365601%)" offset="0.683594"/><stop stop-opacity="1" stop-color="rgb(14.732361%, 51.678467%, 65.249634%)" offset="0.6875"/><stop stop-opacity="1" stop-color="rgb(14.547729%, 51.472473%, 65.133667%)" offset="0.691406"/><stop stop-opacity="1" stop-color="rgb(14.361572%, 51.266479%, 65.019226%)" offset="0.695312"/><stop stop-opacity="1" stop-color="rgb(14.176941%, 51.060486%, 64.903259%)" offset="0.699219"/><stop stop-opacity="1" stop-color="rgb(13.990784%, 50.854492%, 64.788818%)" offset="0.703125"/><stop stop-opacity="1" stop-color="rgb(13.806152%, 50.646973%, 64.672852%)" offset="0.707031"/><stop stop-opacity="1" stop-color="rgb(13.619995%, 50.440979%, 64.556885%)" offset="0.710938"/><stop stop-opacity="1" stop-color="rgb(13.435364%, 50.234985%, 64.442444%)" offset="0.714844"/><stop stop-opacity="1" stop-color="rgb(13.249207%, 50.028992%, 64.326477%)" offset="0.71875"/><stop stop-opacity="1" stop-color="rgb(13.064575%, 49.822998%, 64.212036%)" offset="0.722656"/><stop stop-opacity="1" stop-color="rgb(12.879944%, 49.617004%, 64.096069%)" offset="0.726562"/><stop stop-opacity="1" stop-color="rgb(12.693787%, 49.411011%, 63.980103%)" offset="0.730469"/><stop stop-opacity="1" stop-color="rgb(12.509155%, 49.205017%, 63.865662%)" offset="0.734375"/><stop stop-opacity="1" stop-color="rgb(12.322998%, 48.999023%, 63.749695%)" offset="0.738281"/><stop stop-opacity="1" stop-color="rgb(12.138367%, 48.791504%, 63.635254%)" offset="0.742188"/><stop stop-opacity="1" stop-color="rgb(11.952209%, 48.58551%, 63.519287%)" offset="0.746094"/><stop stop-opacity="1" stop-color="rgb(11.767578%, 48.379517%, 63.40332%)" offset="0.75"/><stop stop-opacity="1" stop-color="rgb(11.581421%, 48.173523%, 63.288879%)" offset="0.753906"/><stop stop-opacity="1" stop-color="rgb(11.39679%, 47.967529%, 63.172913%)" offset="0.757812"/><stop stop-opacity="1" stop-color="rgb(11.210632%, 47.761536%, 63.058472%)" offset="0.761719"/><stop stop-opacity="1" stop-color="rgb(11.026001%, 47.555542%, 62.942505%)" offset="0.765625"/><stop stop-opacity="1" stop-color="rgb(10.84137%, 47.349548%, 62.826538%)" offset="0.769531"/><stop stop-opacity="1" stop-color="rgb(10.655212%, 47.143555%, 62.712097%)" offset="0.773438"/><stop stop-opacity="1" stop-color="rgb(10.470581%, 46.936035%, 62.59613%)" offset="0.777344"/><stop stop-opacity="1" stop-color="rgb(10.284424%, 46.730042%, 62.481689%)" offset="0.78125"/><stop stop-opacity="1" stop-color="rgb(10.099792%, 46.524048%, 62.365723%)" offset="0.785156"/><stop stop-opacity="1" stop-color="rgb(9.913635%, 46.318054%, 62.249756%)" offset="0.789062"/><stop stop-opacity="1" stop-color="rgb(9.729004%, 46.112061%, 62.135315%)" offset="0.792969"/><stop stop-opacity="1" stop-color="rgb(9.542847%, 45.906067%, 62.019348%)" offset="0.796875"/><stop stop-opacity="1" stop-color="rgb(9.358215%, 45.700073%, 61.904907%)" offset="0.800781"/><stop stop-opacity="1" stop-color="rgb(9.172058%, 45.49408%, 61.78894%)" offset="0.804688"/><stop stop-opacity="1" stop-color="rgb(8.987427%, 45.288086%, 61.672974%)" offset="0.808594"/><stop stop-opacity="1" stop-color="rgb(8.80127%, 45.080566%, 61.558533%)" offset="0.8125"/><stop stop-opacity="1" stop-color="rgb(8.616638%, 44.874573%, 61.442566%)" offset="0.816406"/><stop stop-opacity="1" stop-color="rgb(8.432007%, 44.668579%, 61.328125%)" offset="0.820312"/><stop stop-opacity="1" stop-color="rgb(8.24585%, 44.462585%, 61.212158%)" offset="0.824219"/><stop stop-opacity="1" stop-color="rgb(8.061218%, 44.256592%, 61.096191%)" offset="0.828125"/><stop stop-opacity="1" stop-color="rgb(7.875061%, 44.050598%, 60.98175%)" offset="0.832031"/><stop stop-opacity="1" stop-color="rgb(7.69043%, 43.844604%, 60.865784%)" offset="0.835938"/><stop stop-opacity="1" stop-color="rgb(7.504272%, 43.638611%, 60.751343%)" offset="0.839844"/><stop stop-opacity="1" stop-color="rgb(7.319641%, 43.432617%, 60.635376%)" offset="0.84375"/><stop stop-opacity="1" stop-color="rgb(7.133484%, 43.225098%, 60.519409%)" offset="0.847656"/><stop stop-opacity="1" stop-color="rgb(6.948853%, 43.019104%, 60.404968%)" offset="0.851562"/><stop stop-opacity="1" stop-color="rgb(6.762695%, 42.81311%, 60.289001%)" offset="0.855469"/><stop stop-opacity="1" stop-color="rgb(6.578064%, 42.607117%, 60.174561%)" offset="0.859375"/><stop stop-opacity="1" stop-color="rgb(6.393433%, 42.401123%, 60.058594%)" offset="0.863281"/><stop stop-opacity="1" stop-color="rgb(6.207275%, 42.195129%, 59.942627%)" offset="0.867188"/><stop stop-opacity="1" stop-color="rgb(6.022644%, 41.989136%, 59.828186%)" offset="0.871094"/><stop stop-opacity="1" stop-color="rgb(5.836487%, 41.783142%, 59.712219%)" offset="0.875"/><stop stop-opacity="1" stop-color="rgb(5.651855%, 41.577148%, 59.597778%)" offset="0.878906"/><stop stop-opacity="1" stop-color="rgb(5.465698%, 41.369629%, 59.481812%)" offset="0.882812"/><stop stop-opacity="1" stop-color="rgb(5.281067%, 41.163635%, 59.365845%)" offset="0.886719"/><stop stop-opacity="1" stop-color="rgb(5.09491%, 40.957642%, 59.251404%)" offset="0.890625"/><stop stop-opacity="1" stop-color="rgb(4.910278%, 40.751648%, 59.135437%)" offset="0.894531"/><stop stop-opacity="1" stop-color="rgb(4.724121%, 40.545654%, 59.020996%)" offset="0.898438"/><stop stop-opacity="1" stop-color="rgb(4.53949%, 40.339661%, 58.905029%)" offset="0.902344"/><stop stop-opacity="1" stop-color="rgb(4.353333%, 40.133667%, 58.789062%)" offset="0.90625"/><stop stop-opacity="1" stop-color="rgb(4.168701%, 39.927673%, 58.674622%)" offset="0.910156"/><stop stop-opacity="1" stop-color="rgb(3.98407%, 39.72168%, 58.558655%)" offset="0.914062"/><stop stop-opacity="1" stop-color="rgb(3.797913%, 39.51416%, 58.444214%)" offset="0.917969"/><stop stop-opacity="1" stop-color="rgb(3.613281%, 39.308167%, 58.328247%)" offset="0.921875"/><stop stop-opacity="1" stop-color="rgb(3.427124%, 39.102173%, 58.21228%)" offset="0.925781"/><stop stop-opacity="1" stop-color="rgb(3.242493%, 38.896179%, 58.097839%)" offset="0.929688"/><stop stop-opacity="1" stop-color="rgb(3.056335%, 38.690186%, 57.981873%)" offset="0.933594"/><stop stop-opacity="1" stop-color="rgb(2.871704%, 38.484192%, 57.867432%)" offset="0.9375"/><stop stop-opacity="1" stop-color="rgb(2.685547%, 38.278198%, 57.751465%)" offset="0.941406"/><stop stop-opacity="1" stop-color="rgb(2.500916%, 38.072205%, 57.635498%)" offset="0.945312"/><stop stop-opacity="1" stop-color="rgb(2.314758%, 37.866211%, 57.521057%)" offset="0.949219"/><stop stop-opacity="1" stop-color="rgb(2.130127%, 37.658691%, 57.40509%)" offset="0.953125"/><stop stop-opacity="1" stop-color="rgb(1.945496%, 37.452698%, 57.290649%)" offset="0.957031"/><stop stop-opacity="1" stop-color="rgb(1.759338%, 37.246704%, 57.174683%)" offset="0.960938"/><stop stop-opacity="1" stop-color="rgb(1.574707%, 37.04071%, 57.058716%)" offset="0.964844"/><stop stop-opacity="1" stop-color="rgb(1.38855%, 36.834717%, 56.944275%)" offset="0.96875"/><stop stop-opacity="1" stop-color="rgb(1.203918%, 36.628723%, 56.828308%)" offset="0.972656"/><stop stop-opacity="1" stop-color="rgb(1.017761%, 36.422729%, 56.713867%)" offset="0.976562"/><stop stop-opacity="1" stop-color="rgb(0.83313%, 36.216736%, 56.5979%)" offset="0.980469"/><stop stop-opacity="1" stop-color="rgb(0.646973%, 36.010742%, 56.481934%)" offset="0.984375"/><stop stop-opacity="1" stop-color="rgb(0.462341%, 35.803223%, 56.367493%)" offset="0.988281"/><stop stop-opacity="1" stop-color="rgb(0.276184%, 35.597229%, 56.251526%)" offset="0.992188"/><stop stop-opacity="1" stop-color="rgb(0.0915527%, 35.391235%, 56.137085%)" offset="0.996094"/><stop stop-opacity="1" stop-color="rgb(0%, 35.289001%, 56.079102%)" offset="1"/></radialGradient><clipPath id="5efbabe2f3"><path d="M 337.738281 337.738281 L 1192.261719 337.738281 L 1192.261719 1192.261719 L 337.738281 1192.261719 Z M 337.738281 337.738281 " clip-rule="nonzero"/></clipPath><clipPath id="4d82746fe8"><path d="M 765 337.738281 C 529.03125 337.738281 337.738281 529.03125 337.738281 765 C 337.738281 1000.96875 529.03125 1192.261719 765 1192.261719 C 1000.96875 1192.261719 1192.261719 1000.96875 1192.261719 765 C 1192.261719 529.03125 1000.96875 337.738281 765 337.738281 Z M 765 337.738281 " clip-rule="nonzero"/></clipPath><clipPath id="57ffc78603"><path d="M 0.738281 0.738281 L 855.261719 0.738281 L 855.261719 855.261719 L 0.738281 855.261719 Z M 0.738281 0.738281 " clip-rule="nonzero"/></clipPath><clipPath id="5d94769bf9"><path d="M 428 0.738281 C 192.03125 0.738281 0.738281 192.03125 0.738281 428 C 0.738281 663.96875 192.03125 855.261719 428 855.261719 C 663.96875 855.261719 855.261719 663.96875 855.261719 428 C 855.261719 192.03125 663.96875 0.738281 428 0.738281 Z M 428 0.738281 " clip-rule="nonzero"/></clipPath><clipPath id="1bf234b4fa"><rect x="0" width="856" y="0" height="856"/></clipPath><clipPath id="3e9299d065"><rect x="0" width="212" y="0" height="390"/></clipPath></defs><g clip-path="url(#ddf05e5324)"><g clip-path="url(#3370adf68c)"><path fill="url(#84a666c18e)" d="M 74.863281 74.863281 L 74.863281 1454.863281 L 1454.863281 1454.863281 L 1454.863281 74.863281 Z M 74.863281 74.863281 " fill-rule="nonzero"/></g></g><path fill="#ffffff" d="M 1185.578125 764.863281 C 1185.578125 771.75 1185.40625 778.632812 1185.070312 785.507812 C 1184.730469 792.386719 1184.226562 799.25 1183.550781 806.101562 C 1182.875 812.953125 1182.035156 819.785156 1181.023438 826.597656 C 1180.011719 833.40625 1178.835938 840.1875 1177.492188 846.941406 C 1176.148438 853.695312 1174.640625 860.410156 1172.96875 867.089844 C 1171.296875 873.769531 1169.460938 880.402344 1167.460938 886.992188 C 1165.460938 893.578125 1163.304688 900.117188 1160.984375 906.597656 C 1158.664062 913.082031 1156.1875 919.503906 1153.550781 925.863281 C 1150.917969 932.226562 1148.128906 938.519531 1145.183594 944.742188 C 1142.238281 950.964844 1139.144531 957.113281 1135.898438 963.1875 C 1132.652344 969.257812 1129.261719 975.25 1125.722656 981.152344 C 1122.183594 987.058594 1118.5 992.875 1114.675781 998.601562 C 1110.847656 1004.324219 1106.886719 1009.953125 1102.785156 1015.484375 C 1098.683594 1021.011719 1094.449219 1026.4375 1090.078125 1031.761719 C 1085.710938 1037.085938 1081.214844 1042.296875 1076.59375 1047.398438 C 1071.96875 1052.5 1067.222656 1057.484375 1062.351562 1062.351562 C 1057.484375 1067.222656 1052.5 1071.96875 1047.398438 1076.59375 C 1042.296875 1081.214844 1037.085938 1085.710938 1031.761719 1090.078125 C 1026.4375 1094.449219 1021.011719 1098.683594 1015.484375 1102.785156 C 1009.953125 1106.886719 1004.324219 1110.847656 998.601562 1114.675781 C 992.875 1118.5 987.058594 1122.183594 981.152344 1125.722656 C 975.25 1129.261719 969.257812 1132.652344 963.1875 1135.898438 C 957.113281 1139.144531 950.964844 1142.238281 944.742188 1145.183594 C 938.519531 1148.128906 932.226562 1150.917969 925.863281 1153.550781 C 919.503906 1156.1875 913.082031 1158.664062 906.597656 1160.984375 C 900.117188 1163.304688 893.578125 1165.460938 886.992188 1167.460938 C 880.402344 1169.460938 873.769531 1171.296875 867.089844 1172.96875 C 860.410156 1174.640625 853.695312 1176.148438 846.941406 1177.492188 C 840.1875 1178.835938 833.40625 1180.011719 826.597656 1181.023438 C 819.785156 1182.035156 812.953125 1182.875 806.101562 1183.550781 C 799.25 1184.226562 792.386719 1184.730469 785.507812 1185.070312 C 778.632812 1185.40625 771.75 1185.578125 764.863281 1185.578125 C 757.980469 1185.578125 751.097656 1185.40625 744.222656 1185.070312 C 737.34375 1184.730469 730.480469 1184.226562 723.628906 1183.550781 C 716.777344 1182.875 709.945312 1182.035156 703.132812 1181.023438 C 696.324219 1180.011719 689.539062 1178.835938 682.789062 1177.492188 C 676.035156 1176.148438 669.320312 1174.640625 662.640625 1172.96875 C 655.960938 1171.296875 649.328125 1169.460938 642.738281 1167.460938 C 636.148438 1165.460938 629.613281 1163.304688 623.132812 1160.984375 C 616.648438 1158.664062 610.226562 1156.1875 603.867188 1153.550781 C 597.503906 1150.917969 591.210938 1148.128906 584.988281 1145.183594 C 578.761719 1142.238281 572.613281 1139.144531 566.542969 1135.898438 C 560.46875 1132.652344 554.480469 1129.261719 548.574219 1125.722656 C 542.667969 1122.183594 536.855469 1118.5 531.128906 1114.675781 C 525.40625 1110.847656 519.777344 1106.886719 514.246094 1102.785156 C 508.714844 1098.683594 503.289062 1094.449219 497.96875 1090.078125 C 492.644531 1085.710938 487.433594 1081.214844 482.332031 1076.59375 C 477.230469 1071.96875 472.246094 1067.222656 467.375 1062.351562 C 462.507812 1057.484375 457.761719 1052.5 453.136719 1047.398438 C 448.515625 1042.296875 444.019531 1037.085938 439.648438 1031.761719 C 435.28125 1026.4375 431.046875 1021.011719 426.945312 1015.484375 C 422.84375 1009.953125 418.878906 1004.324219 415.054688 998.601562 C 411.230469 992.875 407.546875 987.058594 404.007812 981.152344 C 400.46875 975.25 397.074219 969.257812 393.828125 963.1875 C 390.585938 957.113281 387.488281 950.964844 384.546875 944.742188 C 381.601562 938.519531 378.8125 932.226562 376.175781 925.863281 C 373.542969 919.503906 371.066406 913.082031 368.746094 906.597656 C 366.425781 900.117188 364.265625 893.578125 362.269531 886.992188 C 360.269531 880.402344 358.433594 873.769531 356.761719 867.089844 C 355.089844 860.410156 353.578125 853.695312 352.238281 846.941406 C 350.894531 840.1875 349.714844 833.40625 348.707031 826.597656 C 347.695312 819.785156 346.851562 812.953125 346.179688 806.101562 C 345.503906 799.25 344.996094 792.386719 344.660156 785.507812 C 344.320312 778.632812 344.152344 771.75 344.152344 764.863281 C 344.152344 757.980469 344.320312 751.097656 344.660156 744.222656 C 344.996094 737.34375 345.503906 730.480469 346.179688 723.628906 C 346.851562 716.777344 347.695312 709.945312 348.707031 703.132812 C 349.714844 696.324219 350.894531 689.539062 352.238281 682.789062 C 353.578125 676.035156 355.089844 669.320312 356.761719 662.640625 C 358.433594 655.960938 360.269531 649.328125 362.269531 642.738281 C 364.265625 636.148438 366.425781 629.613281 368.746094 623.132812 C 371.066406 616.648438 373.542969 610.226562 376.175781 603.863281 C 378.8125 597.503906 381.601562 591.210938 384.546875 584.988281 C 387.488281 578.761719 390.585938 572.613281 393.828125 566.542969 C 397.074219 560.46875 400.46875 554.480469 404.007812 548.574219 C 407.546875 542.667969 411.230469 536.855469 415.054688 531.128906 C 418.878906 525.40625 422.84375 519.777344 426.945312 514.246094 C 431.046875 508.714844 435.28125 503.289062 439.648438 497.96875 C 444.019531 492.644531 448.515625 487.433594 453.136719 482.332031 C 457.761719 477.230469 462.507812 472.246094 467.375 467.375 C 472.246094 462.507812 477.230469 457.761719 482.332031 453.136719 C 487.433594 448.515625 492.644531 444.019531 497.96875 439.648438 C 503.289062 435.28125 508.714844 431.046875 514.246094 426.945312 C 519.777344 422.84375 525.40625 418.878906 531.128906 415.054688 C 536.855469 411.230469 542.667969 407.546875 548.574219 404.007812 C 554.480469 400.46875 560.46875 397.074219 566.542969 393.828125 C 572.613281 390.585938 578.761719 387.488281 584.988281 384.546875 C 591.210938 381.601562 597.503906 378.8125 603.867188 376.175781 C 610.226562 373.542969 616.648438 371.066406 623.132812 368.746094 C 629.613281 366.425781 636.148438 364.265625 642.738281 362.269531 C 649.328125 360.269531 655.960938 358.433594 662.640625 356.761719 C 669.320312 355.089844 676.035156 353.578125 682.789062 352.238281 C 689.539062 350.894531 696.324219 349.714844 703.132812 348.707031 C 709.945312 347.695312 716.777344 346.851562 723.628906 346.179688 C 730.480469 345.503906 737.34375 344.996094 744.222656 344.660156 C 751.097656 344.320312 757.980469 344.152344 764.863281 344.152344 C 771.75 344.152344 778.632812 344.320312 785.507812 344.660156 C 792.386719 344.996094 799.25 345.503906 806.101562 346.179688 C 812.953125 346.851562 819.785156 347.695312 826.597656 348.707031 C 833.40625 349.714844 840.1875 350.894531 846.941406 352.238281 C 853.695312 353.578125 860.410156 355.089844 867.089844 356.761719 C 873.769531 358.433594 880.402344 360.269531 886.992188 362.269531 C 893.578125 364.265625 900.117188 366.425781 906.597656 368.746094 C 913.082031 371.066406 919.503906 373.542969 925.863281 376.175781 C 932.226562 378.8125 938.519531 381.601562 944.742188 384.546875 C 950.964844 387.488281 957.113281 390.585938 963.1875 393.828125 C 969.257812 397.074219 975.25 400.46875 981.152344 404.007812 C 987.058594 407.546875 992.875 411.230469 998.601562 415.054688 C 1004.324219 418.878906 1009.953125 422.84375 1015.484375 426.945312 C 1021.011719 431.046875 1026.4375 435.28125 1031.761719 439.648438 C 1037.085938 444.019531 1042.296875 448.515625 1047.398438 453.136719 C 1052.5 457.761719 1057.484375 462.507812 1062.351562 467.375 C 1067.222656 472.246094 1071.96875 477.230469 1076.59375 482.332031 C 1081.214844 487.433594 1085.710938 492.644531 1090.078125 497.96875 C 1094.449219 503.289062 1098.683594 508.714844 1102.785156 514.246094 C 1106.886719 519.777344 1110.847656 525.40625 1114.675781 531.128906 C 1118.5 536.855469 1122.183594 542.667969 1125.722656 548.574219 C 1129.261719 554.480469 1132.652344 560.46875 1135.898438 566.542969 C 1139.144531 572.613281 1142.238281 578.761719 1145.183594 584.988281 C 1148.128906 591.210938 1150.917969 597.503906 1153.550781 603.863281 C 1156.1875 610.226562 1158.664062 616.648438 1160.984375 623.132812 C 1163.304688 629.613281 1165.460938 636.148438 1167.460938 642.738281 C 1169.460938 649.328125 1171.296875 655.960938 1172.96875 662.640625 C 1174.640625 669.320312 1176.148438 676.035156 1177.492188 682.789062 C 1178.835938 689.539062 1180.011719 696.324219 1181.023438 703.132812 C 1182.035156 709.945312 1182.875 716.777344 1183.550781 723.628906 C 1184.226562 730.480469 1184.730469 737.34375 1185.070312 744.222656 C 1185.40625 751.097656 1185.578125 757.980469 1185.578125 764.863281 Z M 1185.578125 764.863281 " fill-opacity="1" fill-rule="nonzero"/><g fill="#231f20" fill-opacity="1"><g transform="translate(457.983403, 993.824415)"><g><path d="M 239.25 -103.5625 C 239.25 -69.863281 229.8125 -43.425781 210.9375 -24.25 C 192.070312 -5.082031 166.015625 4.5 132.765625 4.5 C 95.472656 4.5 66.828125 -8.566406 46.828125 -34.703125 C 26.835938 -60.835938 16.84375 -99.59375 16.84375 -150.96875 C 16.84375 -207.425781 26.988281 -249.921875 47.28125 -278.453125 C 67.582031 -306.984375 96.601562 -321.25 134.34375 -321.25 C 161.15625 -321.25 182.3125 -315.332031 197.8125 -303.5 C 213.3125 -291.675781 224.28125 -273.332031 230.71875 -248.46875 L 171.1875 -240.15625 C 165.5 -260.976562 152.769531 -271.390625 133 -271.390625 C 116.070312 -271.390625 102.773438 -262.925781 93.109375 -246 C 83.453125 -229.070312 78.625 -203.382812 78.625 -168.9375 C 85.363281 -180.175781 94.722656 -188.789062 106.703125 -194.78125 C 118.691406 -200.769531 132.25 -203.765625 147.375 -203.765625 C 175.675781 -203.765625 198.0625 -194.773438 214.53125 -176.796875 C 231.007812 -158.828125 239.25 -134.414062 239.25 -103.5625 Z M 175.90625 -101.765625 C 175.90625 -119.742188 171.75 -133.488281 163.4375 -143 C 155.125 -152.507812 143.703125 -157.265625 129.171875 -157.265625 C 115.242188 -157.265625 104.085938 -152.804688 95.703125 -143.890625 C 87.316406 -134.984375 83.125 -123.191406 83.125 -108.515625 C 83.125 -90.085938 87.503906 -74.84375 96.265625 -62.78125 C 105.023438 -50.726562 116.519531 -44.703125 130.75 -44.703125 C 144.976562 -44.703125 156.0625 -49.753906 164 -59.859375 C 171.9375 -69.972656 175.90625 -83.941406 175.90625 -101.765625 Z M 175.90625 -101.765625 "/></g></g><g transform="translate(713.866363, 993.824415)"><g><path d="M 238.8125 -163.328125 C 238.8125 -107.160156 228.550781 -65.144531 208.03125 -37.28125 C 187.507812 -9.425781 158.378906 4.5 120.640625 4.5 C 92.785156 4.5 70.957031 -1.453125 55.15625 -13.359375 C 39.351562 -25.273438 28.15625 -44.113281 21.5625 -69.875 L 80.875 -78.1875 C 86.71875 -56.164062 100.195312 -45.15625 121.3125 -45.15625 C 138.988281 -45.15625 152.582031 -53.613281 162.09375 -70.53125 C 171.601562 -87.457031 176.503906 -112.546875 176.796875 -145.796875 C 171.109375 -134.566406 161.785156 -125.769531 148.828125 -119.40625 C 135.878906 -113.039062 121.914062 -109.859375 106.9375 -109.859375 C 79.082031 -109.859375 56.953125 -119.328125 40.546875 -138.265625 C 24.148438 -157.210938 15.953125 -182.863281 15.953125 -215.21875 C 15.953125 -248.46875 25.570312 -274.453125 44.8125 -293.171875 C 64.0625 -311.890625 91.285156 -321.25 126.484375 -321.25 C 164.367188 -321.25 192.5625 -308.109375 211.0625 -281.828125 C 229.5625 -255.546875 238.8125 -216.046875 238.8125 -163.328125 Z M 172.078125 -207.578125 C 172.078125 -227.203125 167.769531 -242.816406 159.15625 -254.421875 C 150.550781 -266.023438 139.132812 -271.828125 124.90625 -271.828125 C 110.976562 -271.828125 100.007812 -266.769531 92 -256.65625 C 83.988281 -246.550781 79.984375 -232.585938 79.984375 -214.765625 C 79.984375 -197.242188 83.953125 -183.203125 91.890625 -172.640625 C 99.828125 -162.085938 110.910156 -156.8125 125.140625 -156.8125 C 138.617188 -156.8125 149.8125 -161.414062 158.71875 -170.625 C 167.625 -179.832031 172.078125 -192.148438 172.078125 -207.578125 Z M 172.078125 -207.578125 "/></g></g></g><g fill="#231f20" fill-opacity="1"><g transform="translate(677.606688, 602.750736)"><g><path d="M 154.1875 -72.75 C 154.1875 -57.738281 151.21875 -44.535156 145.28125 -33.140625 C 139.34375 -21.753906 130.847656 -13.039062 119.796875 -7 C 108.753906 -0.96875 95.863281 2.046875 81.125 2.046875 C 58.488281 2.046875 40.738281 -4.617188 27.875 -17.953125 C 15.019531 -31.285156 8.59375 -49.550781 8.59375 -72.75 C 8.59375 -95.863281 15.003906 -113.898438 27.828125 -126.859375 C 40.648438 -139.816406 58.488281 -146.296875 81.34375 -146.296875 C 104.1875 -146.296875 122.035156 -139.75 134.890625 -126.65625 C 147.753906 -113.5625 154.1875 -95.59375 154.1875 -72.75 Z M 123.390625 -72.75 C 123.390625 -88.289062 119.703125 -100.476562 112.328125 -109.3125 C 104.960938 -118.144531 94.632812 -122.5625 81.34375 -122.5625 C 67.832031 -122.5625 57.394531 -118.179688 50.03125 -109.421875 C 42.664062 -100.660156 38.984375 -88.4375 38.984375 -72.75 C 38.984375 -56.914062 42.75 -44.445312 50.28125 -35.34375 C 57.820312 -26.238281 68.101562 -21.6875 81.125 -21.6875 C 94.632812 -21.6875 105.054688 -26.117188 112.390625 -34.984375 C 119.722656 -43.859375 123.390625 -56.445312 123.390625 -72.75 Z M 123.390625 -72.75 "/></g></g></g><path fill="#ffffff" d="M 1163.480469 356.335938 C 1163.480469 359.570312 1163.328125 362.800781 1163.023438 366.03125 C 1162.722656 369.261719 1162.265625 372.488281 1161.660156 375.707031 C 1161.054688 378.925781 1160.296875 382.132812 1159.390625 385.332031 C 1158.484375 388.53125 1157.425781 391.71875 1156.222656 394.890625 C 1155.015625 398.0625 1153.660156 401.21875 1152.160156 404.355469 C 1150.65625 407.492188 1149.007812 410.609375 1147.214844 413.703125 C 1145.417969 416.800781 1143.480469 419.871094 1141.398438 422.914062 C 1139.316406 425.960938 1137.09375 428.976562 1134.726562 431.964844 C 1132.359375 434.953125 1129.855469 437.910156 1127.214844 440.835938 C 1124.570312 443.757812 1121.792969 446.648438 1118.878906 449.5 C 1115.964844 452.351562 1112.917969 455.164062 1109.738281 457.9375 C 1106.5625 460.714844 1103.253906 463.445312 1099.820312 466.132812 C 1096.386719 468.824219 1092.828125 471.46875 1089.144531 474.066406 C 1085.460938 476.664062 1081.660156 479.210938 1077.738281 481.714844 C 1073.816406 484.214844 1069.78125 486.660156 1065.628906 489.058594 C 1061.476562 491.453125 1057.214844 493.796875 1052.84375 496.082031 C 1048.472656 498.371094 1043.996094 500.601562 1039.417969 502.773438 C 1034.835938 504.945312 1030.15625 507.058594 1025.378906 509.109375 C 1020.597656 511.160156 1015.726562 513.148438 1010.761719 515.078125 C 1005.796875 517.003906 1000.742188 518.867188 995.605469 520.664062 C 990.464844 522.460938 985.242188 524.1875 979.941406 525.851562 C 974.636719 527.515625 969.261719 529.109375 963.808594 530.632812 C 958.355469 532.160156 952.835938 533.613281 947.25 534.996094 C 941.660156 536.378906 936.011719 537.6875 930.300781 538.925781 C 924.585938 540.164062 918.820312 541.328125 913 542.417969 C 907.179688 543.507812 901.3125 544.519531 895.398438 545.460938 C 889.480469 546.398438 883.523438 547.261719 877.527344 548.046875 C 871.53125 548.832031 865.503906 549.542969 859.4375 550.171875 C 853.375 550.804688 847.285156 551.355469 841.171875 551.832031 C 835.058594 552.304688 828.921875 552.703125 822.769531 553.019531 C 816.621094 553.335938 810.457031 553.574219 804.28125 553.730469 C 798.105469 553.890625 791.929688 553.96875 785.746094 553.96875 C 779.566406 553.96875 773.386719 553.890625 767.210938 553.730469 C 761.039062 553.574219 754.875 553.335938 748.722656 553.019531 C 742.570312 552.703125 736.4375 552.304688 730.324219 551.832031 C 724.207031 551.355469 718.117188 550.804688 712.054688 550.171875 C 705.992188 549.542969 699.960938 548.832031 693.964844 548.046875 C 687.96875 547.261719 682.011719 546.398438 676.097656 545.460938 C 670.179688 544.519531 664.3125 543.507812 658.492188 542.417969 C 652.671875 541.328125 646.90625 540.164062 641.195312 538.925781 C 635.484375 537.6875 629.835938 536.378906 624.246094 534.996094 C 618.65625 533.613281 613.136719 532.160156 607.683594 530.632812 C 602.234375 529.109375 596.855469 527.515625 591.554688 525.851562 C 586.25 524.1875 581.03125 522.460938 575.890625 520.664062 C 570.75 518.867188 565.699219 517.003906 560.730469 515.078125 C 555.765625 513.148438 550.894531 511.160156 546.117188 509.109375 C 541.335938 507.058594 536.65625 504.945312 532.078125 502.773438 C 527.496094 500.601562 523.019531 498.371094 518.648438 496.082031 C 514.277344 493.796875 510.015625 491.453125 505.867188 489.058594 C 501.714844 486.660156 497.679688 484.214844 493.757812 481.714844 C 489.835938 479.210938 486.03125 476.664062 482.351562 474.066406 C 478.667969 471.46875 475.109375 468.824219 471.675781 466.132812 C 468.238281 463.445312 464.933594 460.714844 461.753906 457.9375 C 458.578125 455.164062 455.53125 452.351562 452.617188 449.5 C 449.703125 446.648438 446.925781 443.757812 444.28125 440.835938 C 441.636719 437.910156 439.132812 434.953125 436.769531 431.964844 C 434.402344 428.976562 432.179688 425.960938 430.09375 422.914062 C 428.011719 419.871094 426.074219 416.800781 424.28125 413.703125 C 422.484375 410.609375 420.835938 407.492188 419.335938 404.355469 C 417.832031 401.21875 416.480469 398.0625 415.273438 394.890625 C 414.066406 391.71875 413.011719 388.53125 412.101562 385.332031 C 411.195312 382.132812 410.441406 378.925781 409.832031 375.707031 C 409.226562 372.488281 408.773438 369.261719 408.46875 366.03125 C 408.167969 362.800781 408.015625 359.570312 408.015625 356.335938 C 408.015625 353.097656 408.167969 349.867188 408.46875 346.636719 C 408.773438 343.40625 409.226562 340.179688 409.832031 336.960938 C 410.441406 333.742188 411.195312 330.535156 412.101562 327.335938 C 413.011719 324.136719 414.066406 320.949219 415.273438 317.777344 C 416.480469 314.605469 417.832031 311.449219 419.335938 308.3125 C 420.835938 305.175781 422.484375 302.058594 424.28125 298.964844 C 426.074219 295.867188 428.011719 292.796875 430.09375 289.753906 C 432.179688 286.707031 434.402344 283.691406 436.769531 280.703125 C 439.132812 277.714844 441.636719 274.757812 444.28125 271.832031 C 446.925781 268.910156 449.703125 266.023438 452.617188 263.167969 C 455.53125 260.316406 458.578125 257.503906 461.753906 254.730469 C 464.933594 251.953125 468.238281 249.222656 471.675781 246.535156 C 475.109375 243.84375 478.667969 241.199219 482.351562 238.601562 C 486.03125 236.003906 489.835938 233.457031 493.757812 230.953125 C 497.679688 228.453125 501.714844 226.007812 505.867188 223.609375 C 510.015625 221.214844 514.277344 218.871094 518.648438 216.585938 C 523.019531 214.296875 527.496094 212.066406 532.078125 209.894531 C 536.65625 207.722656 541.335938 205.609375 546.117188 203.558594 C 550.894531 201.507812 555.765625 199.519531 560.730469 197.589844 C 565.699219 195.664062 570.75 193.800781 575.890625 192.003906 C 581.03125 190.207031 586.25 188.480469 591.554688 186.816406 C 596.855469 185.152344 602.234375 183.558594 607.683594 182.035156 C 613.136719 180.511719 618.65625 179.054688 624.246094 177.671875 C 629.835938 176.289062 635.484375 174.980469 641.195312 173.742188 C 646.90625 172.503906 652.671875 171.339844 658.492188 170.25 C 664.3125 169.160156 670.179688 168.148438 676.097656 167.207031 C 682.011719 166.269531 687.96875 165.40625 693.964844 164.621094 C 699.960938 163.835938 705.992188 163.125 712.054688 162.496094 C 718.117188 161.863281 724.207031 161.3125 730.324219 160.835938 C 736.4375 160.363281 742.570312 159.964844 748.722656 159.648438 C 754.875 159.332031 761.039062 159.09375 767.210938 158.9375 C 773.386719 158.777344 779.566406 158.699219 785.746094 158.699219 C 791.929688 158.699219 798.105469 158.777344 804.28125 158.9375 C 810.457031 159.09375 816.621094 159.332031 822.769531 159.648438 C 828.921875 159.964844 835.058594 160.363281 841.171875 160.835938 C 847.285156 161.3125 853.375 161.863281 859.4375 162.496094 C 865.503906 163.125 871.53125 163.835938 877.527344 164.621094 C 883.523438 165.40625 889.480469 166.269531 895.398438 167.207031 C 901.3125 168.148438 907.179688 169.160156 913 170.25 C 918.820312 171.339844 924.585938 172.503906 930.300781 173.742188 C 936.011719 174.980469 941.660156 176.289062 947.25 177.671875 C 952.835938 179.054688 958.355469 180.511719 963.808594 182.035156 C 969.261719 183.558594 974.636719 185.152344 979.941406 186.816406 C 985.242188 188.480469 990.464844 190.207031 995.605469 192.003906 C 1000.742188 193.800781 1005.796875 195.664062 1010.761719 197.589844 C 1015.726562 199.519531 1020.597656 201.507812 1025.378906 203.558594 C 1030.15625 205.609375 1034.835938 207.722656 1039.417969 209.894531 C 1043.996094 212.066406 1048.472656 214.296875 1052.84375 216.585938 C 1057.214844 218.871094 1061.476562 221.214844 1065.628906 223.609375 C 1069.78125 226.007812 1073.816406 228.453125 1077.738281 230.953125 C 1081.660156 233.457031 1085.460938 236.003906 1089.144531 238.601562 C 1092.828125 241.199219 1096.386719 243.84375 1099.820312 246.535156 C 1103.253906 249.222656 1106.5625 251.953125 1109.738281 254.730469 C 1112.917969 257.503906 1115.964844 260.316406 1118.878906 263.167969 C 1121.792969 266.023438 1124.570312 268.910156 1127.210938 271.832031 C 1129.855469 274.757812 1132.359375 277.714844 1134.726562 280.703125 C 1137.089844 283.691406 1139.316406 286.707031 1141.398438 289.753906 C 1143.480469 292.796875 1145.417969 295.867188 1147.214844 298.964844 C 1149.007812 302.058594 1150.65625 305.175781 1152.160156 308.3125 C 1153.660156 311.449219 1155.015625 314.605469 1156.222656 317.777344 C 1157.425781 320.949219 1158.484375 324.136719 1159.390625 327.335938 C 1160.296875 330.535156 1161.054688 333.742188 1161.660156 336.960938 C 1162.265625 340.179688 1162.722656 343.40625 1163.023438 346.636719 C 1163.328125 349.867188 1163.480469 353.097656 1163.480469 356.335938 Z M 1163.480469 356.335938 " fill-opacity="0.26" fill-rule="nonzero"/><path fill="#ffffff" d="M 392.050781 452.957031 C 392.050781 454.503906 391.972656 456.046875 391.820312 457.585938 C 391.671875 459.125 391.445312 460.652344 391.140625 462.171875 C 390.839844 463.6875 390.464844 465.1875 390.015625 466.667969 C 389.566406 468.148438 389.046875 469.601562 388.453125 471.03125 C 387.863281 472.460938 387.203125 473.859375 386.472656 475.222656 C 385.742188 476.585938 384.949219 477.910156 384.089844 479.199219 C 383.230469 480.484375 382.308594 481.726562 381.328125 482.921875 C 380.347656 484.117188 379.308594 485.261719 378.214844 486.355469 C 377.121094 487.449219 375.976562 488.488281 374.78125 489.46875 C 373.585938 490.449219 372.34375 491.371094 371.058594 492.230469 C 369.769531 493.089844 368.445312 493.882812 367.082031 494.613281 C 365.71875 495.34375 364.320312 496.003906 362.890625 496.59375 C 361.460938 497.1875 360.007812 497.707031 358.527344 498.15625 C 357.046875 498.605469 355.546875 498.980469 354.03125 499.28125 C 352.511719 499.585938 350.984375 499.8125 349.445312 499.960938 C 347.90625 500.113281 346.363281 500.191406 344.816406 500.191406 C 343.269531 500.191406 341.726562 500.113281 340.1875 499.960938 C 338.644531 499.8125 337.117188 499.585938 335.601562 499.28125 C 334.082031 498.980469 332.585938 498.605469 331.105469 498.15625 C 329.625 497.707031 328.167969 497.1875 326.738281 496.59375 C 325.3125 496.003906 323.914062 495.34375 322.550781 494.613281 C 321.183594 493.882812 319.859375 493.089844 318.574219 492.230469 C 317.289062 491.371094 316.046875 490.449219 314.851562 489.46875 C 313.65625 488.488281 312.511719 487.449219 311.417969 486.355469 C 310.324219 485.261719 309.285156 484.117188 308.304688 482.921875 C 307.320312 481.726562 306.402344 480.484375 305.542969 479.199219 C 304.683594 477.910156 303.886719 476.585938 303.160156 475.222656 C 302.429688 473.859375 301.769531 472.460938 301.175781 471.03125 C 300.585938 469.601562 300.066406 468.148438 299.617188 466.667969 C 299.167969 465.1875 298.792969 463.6875 298.488281 462.171875 C 298.1875 460.652344 297.960938 459.125 297.808594 457.585938 C 297.65625 456.046875 297.582031 454.503906 297.582031 452.957031 C 297.582031 451.410156 297.65625 449.867188 297.808594 448.328125 C 297.960938 446.785156 298.1875 445.257812 298.488281 443.742188 C 298.792969 442.222656 299.167969 440.726562 299.617188 439.246094 C 300.066406 437.765625 300.585938 436.308594 301.175781 434.878906 C 301.769531 433.453125 302.429688 432.054688 303.160156 430.691406 C 303.886719 429.324219 304.683594 428 305.542969 426.714844 C 306.402344 425.429688 307.320312 424.1875 308.304688 422.992188 C 309.285156 421.796875 310.324219 420.652344 311.417969 419.558594 C 312.511719 418.464844 313.65625 417.425781 314.851562 416.445312 C 316.046875 415.460938 317.289062 414.542969 318.574219 413.683594 C 319.859375 412.824219 321.183594 412.027344 322.550781 411.300781 C 323.914062 410.570312 325.3125 409.910156 326.738281 409.316406 C 328.167969 408.726562 329.625 408.207031 331.105469 407.757812 C 332.585938 407.308594 334.082031 406.933594 335.601562 406.628906 C 337.117188 406.328125 338.644531 406.101562 340.1875 405.949219 C 341.726562 405.796875 343.269531 405.722656 344.816406 405.722656 C 346.363281 405.722656 347.90625 405.796875 349.445312 405.949219 C 350.984375 406.101562 352.511719 406.328125 354.03125 406.628906 C 355.546875 406.933594 357.046875 407.308594 358.527344 407.757812 C 360.007812 408.207031 361.460938 408.726562 362.890625 409.316406 C 364.320312 409.910156 365.71875 410.570312 367.082031 411.300781 C 368.445312 412.027344 369.769531 412.824219 371.058594 413.683594 C 372.34375 414.542969 373.585938 415.460938 374.78125 416.445312 C 375.976562 417.425781 377.121094 418.464844 378.214844 419.558594 C 379.308594 420.652344 380.347656 421.796875 381.328125 422.992188 C 382.308594 424.1875 383.230469 425.429688 384.089844 426.714844 C 384.949219 428 385.742188 429.324219 386.472656 430.691406 C 387.203125 432.054688 387.863281 433.453125 388.453125 434.878906 C 389.046875 436.308594 389.566406 437.765625 390.015625 439.246094 C 390.464844 440.726562 390.839844 442.222656 391.140625 443.742188 C 391.445312 445.257812 391.671875 446.785156 391.820312 448.328125 C 391.972656 449.867188 392.050781 451.410156 392.050781 452.957031 Z M 392.050781 452.957031 " fill-opacity="0.26" fill-rule="nonzero"/><path fill="#ffffff" d="M 281.921875 547.175781 C 281.921875 548.074219 281.875 548.972656 281.789062 549.867188 C 281.699219 550.765625 281.566406 551.652344 281.390625 552.535156 C 281.214844 553.417969 280.996094 554.292969 280.738281 555.152344 C 280.476562 556.015625 280.171875 556.859375 279.828125 557.691406 C 279.484375 558.523438 279.097656 559.335938 278.675781 560.132812 C 278.25 560.925781 277.789062 561.695312 277.289062 562.445312 C 276.789062 563.191406 276.253906 563.914062 275.679688 564.609375 C 275.109375 565.304688 274.507812 565.972656 273.871094 566.609375 C 273.234375 567.246094 272.566406 567.847656 271.871094 568.421875 C 271.175781 568.992188 270.453125 569.527344 269.707031 570.027344 C 268.957031 570.527344 268.1875 570.988281 267.390625 571.414062 C 266.597656 571.839844 265.785156 572.222656 264.953125 572.566406 C 264.121094 572.910156 263.277344 573.214844 262.414062 573.476562 C 261.554688 573.738281 260.679688 573.957031 259.796875 574.132812 C 258.914062 574.304688 258.027344 574.4375 257.128906 574.527344 C 256.234375 574.613281 255.335938 574.660156 254.4375 574.660156 C 253.535156 574.660156 252.636719 574.613281 251.742188 574.527344 C 250.847656 574.4375 249.957031 574.304688 249.074219 574.132812 C 248.191406 573.957031 247.320312 573.738281 246.457031 573.476562 C 245.597656 573.214844 244.75 572.910156 243.917969 572.566406 C 243.085938 572.222656 242.273438 571.839844 241.480469 571.414062 C 240.6875 570.988281 239.914062 570.527344 239.167969 570.027344 C 238.417969 569.527344 237.695312 568.992188 237 568.421875 C 236.304688 567.847656 235.636719 567.246094 235.003906 566.609375 C 234.367188 565.972656 233.761719 565.304688 233.191406 564.609375 C 232.621094 563.914062 232.085938 563.191406 231.585938 562.445312 C 231.082031 561.695312 230.621094 560.925781 230.199219 560.132812 C 229.773438 559.335938 229.390625 558.523438 229.042969 557.691406 C 228.699219 556.859375 228.398438 556.015625 228.136719 555.152344 C 227.875 554.292969 227.65625 553.417969 227.480469 552.535156 C 227.304688 551.652344 227.171875 550.765625 227.085938 549.867188 C 226.996094 548.972656 226.953125 548.074219 226.953125 547.175781 C 226.953125 546.273438 226.996094 545.378906 227.085938 544.480469 C 227.171875 543.585938 227.304688 542.695312 227.480469 541.8125 C 227.65625 540.929688 227.875 540.058594 228.136719 539.195312 C 228.398438 538.335938 228.699219 537.488281 229.042969 536.65625 C 229.390625 535.824219 229.773438 535.011719 230.199219 534.21875 C 230.621094 533.425781 231.082031 532.652344 231.585938 531.90625 C 232.085938 531.15625 232.621094 530.433594 233.191406 529.738281 C 233.761719 529.042969 234.367188 528.378906 235.003906 527.742188 C 235.636719 527.105469 236.304688 526.5 237 525.929688 C 237.695312 525.359375 238.417969 524.824219 239.167969 524.324219 C 239.914062 523.824219 240.6875 523.359375 241.480469 522.9375 C 242.273438 522.511719 243.085938 522.128906 243.917969 521.785156 C 244.75 521.4375 245.597656 521.136719 246.457031 520.875 C 247.320312 520.613281 248.191406 520.394531 249.074219 520.21875 C 249.957031 520.042969 250.847656 519.910156 251.742188 519.824219 C 252.636719 519.734375 253.535156 519.691406 254.4375 519.691406 C 255.335938 519.691406 256.234375 519.734375 257.128906 519.824219 C 258.027344 519.910156 258.914062 520.042969 259.796875 520.21875 C 260.679688 520.394531 261.554688 520.613281 262.414062 520.875 C 263.277344 521.136719 264.121094 521.4375 264.953125 521.78125 C 265.785156 522.128906 266.597656 522.511719 267.390625 522.9375 C 268.1875 523.359375 268.957031 523.824219 269.707031 524.324219 C 270.453125 524.824219 271.175781 525.359375 271.871094 525.929688 C 272.566406 526.5 273.234375 527.105469 273.871094 527.742188 C 274.507812 528.378906 275.109375 529.042969 275.679688 529.738281 C 276.253906 530.433594 276.789062 531.15625 277.289062 531.90625 C 277.789062 532.652344 278.25 533.425781 278.675781 534.21875 C 279.097656 535.011719 279.484375 535.824219 279.828125 536.65625 C 280.171875 537.488281 280.476562 538.335938 280.738281 539.195312 C 280.996094 540.058594 281.214844 540.929688 281.390625 541.8125 C 281.566406 542.695312 281.699219 543.585938 281.789062 544.480469 C 281.875 545.378906 281.921875 546.273438 281.921875 547.175781 Z M 281.921875 547.175781 " fill-opacity="0.26" fill-rule="nonzero"/><g clip-path="url(#5efbabe2f3)"><g clip-path="url(#4d82746fe8)"><g transform="matrix(1, 0, 0, 1, 337, 337)"><g clip-path="url(#1bf234b4fa)"><g clip-path="url(#57ffc78603)"><g clip-path="url(#5d94769bf9)"><path fill="#ffffff" d="M 0.738281 0.738281 L 855.261719 0.738281 L 855.261719 855.261719 L 0.738281 855.261719 Z M 0.738281 0.738281 " fill-opacity="1" fill-rule="nonzero"/></g></g></g></g></g></g><g transform="matrix(1, 0, 0, 1, 659, 304)"><g clip-path="url(#3e9299d065)"><g fill="#232323" fill-opacity="1"><g transform="translate(0.238376, 291.623376)"><g><path d="M 146.5625 -133.25 C 143.050781 -139.71875 138.007812 -144.664062 131.4375 -148.09375 C 124.875 -151.519531 117.148438 -153.234375 108.265625 -153.234375 C 92.898438 -153.234375 80.59375 -148.1875 71.34375 -138.09375 C 62.09375 -128.007812 57.46875 -114.550781 57.46875 -97.71875 C 57.46875 -79.757812 62.320312 -65.738281 72.03125 -55.65625 C 81.75 -45.570312 95.117188 -40.53125 112.140625 -40.53125 C 123.804688 -40.53125 133.660156 -43.488281 141.703125 -49.40625 C 149.753906 -55.332031 155.632812 -63.847656 159.34375 -74.953125 L 99.09375 -74.953125 L 99.09375 -109.921875 L 202.359375 -109.921875 L 202.359375 -65.796875 C 198.847656 -53.953125 192.878906 -42.9375 184.453125 -32.75 C 176.035156 -22.570312 165.347656 -14.335938 152.390625 -8.046875 C 139.441406 -1.753906 124.828125 1.390625 108.546875 1.390625 C 89.296875 1.390625 72.128906 -2.816406 57.046875 -11.234375 C 41.960938 -19.660156 30.207031 -31.367188 21.78125 -46.359375 C 13.363281 -61.347656 9.15625 -78.46875 9.15625 -97.71875 C 9.15625 -116.957031 13.363281 -134.117188 21.78125 -149.203125 C 30.207031 -164.285156 41.914062 -176.035156 56.90625 -184.453125 C 71.894531 -192.878906 89.015625 -197.09375 108.265625 -197.09375 C 131.578125 -197.09375 151.238281 -191.445312 167.25 -180.15625 C 183.257812 -168.863281 193.851562 -153.226562 199.03125 -133.25 Z M 146.5625 -133.25 "/></g></g></g></g></g></svg>