<svg xmlns="http://www.w3.org/2000/svg" xmlns:xlink="http://www.w3.org/1999/xlink" width="2040" zoomAndPan="magnify" viewBox="0 0 1530 1529.999932" height="2040" preserveAspectRatio="xMidYMid meet" version="1.0"><defs><g/><clipPath id="524b68d602"><path d="M 74.863281 74.863281 L 1454.863281 74.863281 L 1454.863281 1454.863281 L 74.863281 1454.863281 Z M 74.863281 74.863281 " clip-rule="nonzero"/></clipPath><clipPath id="c7b67f2be1"><path d="M 1454.863281 764.863281 C 1454.863281 776.15625 1454.585938 787.441406 1454.035156 798.722656 C 1453.480469 810 1452.648438 821.257812 1451.542969 832.496094 C 1450.433594 843.734375 1449.054688 854.9375 1447.398438 866.109375 C 1445.738281 877.277344 1443.808594 888.402344 1441.605469 899.476562 C 1439.402344 910.550781 1436.929688 921.566406 1434.1875 932.519531 C 1431.441406 943.476562 1428.433594 954.355469 1425.152344 965.160156 C 1421.875 975.96875 1418.335938 986.6875 1414.53125 997.320312 C 1410.726562 1007.949219 1406.664062 1018.484375 1402.339844 1028.917969 C 1398.019531 1039.347656 1393.445312 1049.667969 1388.617188 1059.878906 C 1383.789062 1070.085938 1378.714844 1080.167969 1373.390625 1090.128906 C 1368.066406 1100.085938 1362.503906 1109.910156 1356.699219 1119.59375 C 1350.890625 1129.28125 1344.851562 1138.820312 1338.578125 1148.207031 C 1332.304688 1157.597656 1325.804688 1166.828125 1319.078125 1175.898438 C 1312.351562 1184.96875 1305.40625 1193.867188 1298.242188 1202.597656 C 1291.078125 1211.324219 1283.703125 1219.875 1276.121094 1228.242188 C 1268.539062 1236.609375 1260.753906 1244.785156 1252.769531 1252.769531 C 1244.785156 1260.753906 1236.609375 1268.539062 1228.242188 1276.121094 C 1219.875 1283.703125 1211.324219 1291.078125 1202.597656 1298.242188 C 1193.867188 1305.40625 1184.96875 1312.351562 1175.898438 1319.078125 C 1166.828125 1325.804688 1157.597656 1332.304688 1148.207031 1338.578125 C 1138.820312 1344.851562 1129.28125 1350.890625 1119.59375 1356.699219 C 1109.910156 1362.503906 1100.085938 1368.066406 1090.128906 1373.390625 C 1080.167969 1378.714844 1070.085938 1383.789062 1059.878906 1388.617188 C 1049.667969 1393.445312 1039.347656 1398.019531 1028.917969 1402.339844 C 1018.484375 1406.664062 1007.949219 1410.726562 997.320312 1414.53125 C 986.6875 1418.335938 975.96875 1421.875 965.160156 1425.152344 C 954.355469 1428.433594 943.476562 1431.441406 932.519531 1434.1875 C 921.566406 1436.929688 910.550781 1439.402344 899.476562 1441.605469 C 888.402344 1443.808594 877.277344 1445.738281 866.109375 1447.398438 C 854.9375 1449.054688 843.734375 1450.433594 832.496094 1451.542969 C 821.257812 1452.648438 810 1453.480469 798.722656 1454.035156 C 787.441406 1454.585938 776.15625 1454.863281 764.863281 1454.863281 C 753.574219 1454.863281 742.285156 1454.585938 731.007812 1454.035156 C 719.730469 1453.480469 708.472656 1452.648438 697.234375 1451.542969 C 685.996094 1450.433594 674.789062 1449.054688 663.621094 1447.398438 C 652.449219 1445.738281 641.328125 1443.808594 630.253906 1441.605469 C 619.175781 1439.402344 608.164062 1436.929688 597.207031 1434.1875 C 586.253906 1431.441406 575.375 1428.433594 564.570312 1425.152344 C 553.761719 1421.875 543.042969 1418.335938 532.410156 1414.53125 C 521.777344 1410.726562 511.246094 1406.664062 500.8125 1402.339844 C 490.378906 1398.019531 480.058594 1393.445312 469.851562 1388.617188 C 459.644531 1383.789062 449.558594 1378.714844 439.601562 1373.390625 C 429.640625 1368.066406 419.820312 1362.503906 410.132812 1356.699219 C 400.449219 1350.890625 390.910156 1344.851562 381.519531 1338.578125 C 372.132812 1332.304688 362.902344 1325.804688 353.832031 1319.078125 C 344.761719 1312.351562 335.863281 1305.40625 327.132812 1298.242188 C 318.40625 1291.078125 309.855469 1283.703125 301.488281 1276.121094 C 293.121094 1268.539062 284.945312 1260.753906 276.960938 1252.769531 C 268.976562 1244.785156 261.191406 1236.609375 253.609375 1228.242188 C 246.023438 1219.875 238.652344 1211.324219 231.488281 1202.597656 C 224.324219 1193.867188 217.378906 1184.96875 210.652344 1175.898438 C 203.925781 1166.828125 197.425781 1157.597656 191.152344 1148.207031 C 184.878906 1138.820312 178.835938 1129.28125 173.03125 1119.59375 C 167.226562 1109.910156 161.664062 1100.085938 156.339844 1090.128906 C 151.015625 1080.167969 145.941406 1070.085938 141.113281 1059.878906 C 136.285156 1049.667969 131.710938 1039.347656 127.386719 1028.917969 C 123.066406 1018.484375 119.003906 1007.949219 115.199219 997.320312 C 111.394531 986.6875 107.855469 975.96875 104.574219 965.160156 C 101.296875 954.355469 98.289062 943.476562 95.542969 932.519531 C 92.800781 921.566406 90.324219 910.550781 88.125 899.476562 C 85.921875 888.402344 83.988281 877.277344 82.332031 866.109375 C 80.675781 854.9375 79.292969 843.734375 78.1875 832.496094 C 77.082031 821.257812 76.25 810 75.695312 798.722656 C 75.140625 787.441406 74.863281 776.15625 74.863281 764.863281 C 74.863281 753.574219 75.140625 742.285156 75.695312 731.007812 C 76.25 719.730469 77.082031 708.472656 78.1875 697.234375 C 79.292969 685.996094 80.675781 674.789062 82.332031 663.621094 C 83.988281 652.449219 85.921875 641.328125 88.125 630.253906 C 90.324219 619.175781 92.800781 608.164062 95.542969 597.207031 C 98.289062 586.253906 101.296875 575.375 104.574219 564.570312 C 107.855469 553.761719 111.394531 543.042969 115.199219 532.410156 C 119.003906 521.777344 123.066406 511.246094 127.386719 500.8125 C 131.710938 490.378906 136.285156 480.058594 141.113281 469.851562 C 145.941406 459.644531 151.015625 449.558594 156.339844 439.601562 C 161.664062 429.640625 167.226562 419.820312 173.03125 410.132812 C 178.835938 400.449219 184.878906 390.910156 191.152344 381.519531 C 197.425781 372.132812 203.925781 362.902344 210.652344 353.832031 C 217.378906 344.761719 224.324219 335.863281 231.488281 327.132812 C 238.652344 318.40625 246.023438 309.855469 253.609375 301.488281 C 261.191406 293.121094 268.976562 284.945312 276.960938 276.960938 C 284.945312 268.976562 293.121094 261.191406 301.488281 253.609375 C 309.855469 246.023438 318.40625 238.652344 327.132812 231.488281 C 335.863281 224.324219 344.761719 217.378906 353.832031 210.652344 C 362.902344 203.925781 372.132812 197.425781 381.519531 191.152344 C 390.910156 184.878906 400.449219 178.835938 410.132812 173.03125 C 419.820312 167.226562 429.640625 161.664062 439.601562 156.339844 C 449.558594 151.015625 459.644531 145.941406 469.851562 141.113281 C 480.058594 136.285156 490.378906 131.710938 500.8125 127.386719 C 511.246094 123.066406 521.777344 119.003906 532.410156 115.199219 C 543.042969 111.394531 553.761719 107.855469 564.570312 104.574219 C 575.375 101.296875 586.253906 98.289062 597.207031 95.542969 C 608.164062 92.800781 619.175781 90.324219 630.253906 88.121094 C 641.328125 85.921875 652.449219 83.988281 663.621094 82.332031 C 674.792969 80.675781 685.996094 79.292969 697.234375 78.1875 C 708.472656 77.082031 719.730469 76.25 731.007812 75.695312 C 742.285156 75.140625 753.574219 74.863281 764.863281 74.863281 C 776.15625 74.863281 787.441406 75.140625 798.722656 75.695312 C 810 76.25 821.257812 77.082031 832.496094 78.1875 C 843.734375 79.292969 854.9375 80.675781 866.109375 82.332031 C 877.277344 83.988281 888.402344 85.921875 899.476562 88.121094 C 910.550781 90.324219 921.566406 92.800781 932.519531 95.542969 C 943.476562 98.289062 954.355469 101.296875 965.160156 104.574219 C 975.96875 107.855469 986.6875 111.394531 997.320312 115.199219 C 1007.949219 119.003906 1018.484375 123.066406 1028.917969 127.386719 C 1039.347656 131.710938 1049.667969 136.285156 1059.878906 141.113281 C 1070.085938 145.941406 1080.167969 151.015625 1090.128906 156.339844 C 1100.085938 161.664062 1109.910156 167.226562 1119.59375 173.03125 C 1129.28125 178.835938 1138.820312 184.878906 1148.207031 191.152344 C 1157.597656 197.425781 1166.828125 203.925781 1175.898438 210.652344 C 1184.96875 217.378906 1193.867188 224.324219 1202.597656 231.488281 C 1211.324219 238.652344 1219.875 246.023438 1228.242188 253.609375 C 1236.609375 261.191406 1244.785156 268.976562 1252.769531 276.960938 C 1260.753906 284.945312 1268.539062 293.121094 1276.121094 301.488281 C 1283.703125 309.855469 1291.078125 318.40625 1298.242188 327.132812 C 1305.40625 335.863281 1312.351562 344.761719 1319.078125 353.832031 C 1325.804688 362.902344 1332.304688 372.132812 1338.578125 381.519531 C 1344.851562 390.910156 1350.890625 400.449219 1356.699219 410.132812 C 1362.503906 419.820312 1368.066406 429.640625 1373.390625 439.601562 C 1378.714844 449.558594 1383.789062 459.644531 1388.617188 469.851562 C 1393.445312 480.058594 1398.019531 490.378906 1402.339844 500.8125 C 1406.664062 511.246094 1410.726562 521.777344 1414.53125 532.410156 C 1418.335938 543.042969 1421.875 553.761719 1425.152344 564.570312 C 1428.433594 575.375 1431.441406 586.253906 1434.1875 597.207031 C 1436.929688 608.164062 1439.402344 619.175781 1441.605469 630.253906 C 1443.808594 641.328125 1445.738281 652.449219 1447.398438 663.621094 C 1449.054688 674.789062 1450.433594 685.996094 1451.542969 697.234375 C 1452.648438 708.472656 1453.480469 719.730469 1454.035156 731.007812 C 1454.585938 742.285156 1454.863281 753.574219 1454.863281 764.863281 Z M 1454.863281 764.863281 " clip-rule="nonzero"/></clipPath><radialGradient gradientTransform="matrix(1, 0, 0, 1, 74.864937, 74.864847)" gradientUnits="userSpaceOnUse" r="887.083643" cx="621.00003" id="88e769acbb" cy="103.500003" fx="621.00003" fy="103.500003"><stop stop-opacity="1" stop-color="rgb(99.609375%, 83.918762%, 29.019165%)" offset="0"/><stop stop-opacity="1" stop-color="rgb(99.609375%, 83.918762%, 29.019165%)" offset="0.125"/><stop stop-opacity="1" stop-color="rgb(99.577332%, 83.753967%, 28.863525%)" offset="0.179688"/><stop stop-opacity="1" stop-color="rgb(99.516296%, 83.441162%, 28.569031%)" offset="0.203125"/><stop stop-opacity="1" stop-color="rgb(99.459839%, 83.145142%, 28.289795%)" offset="0.214844"/><stop stop-opacity="1" stop-color="rgb(99.403381%, 82.850647%, 28.012085%)" offset="0.226562"/><stop stop-opacity="1" stop-color="rgb(99.346924%, 82.556152%, 27.734375%)" offset="0.238281"/><stop stop-opacity="1" stop-color="rgb(99.290466%, 82.260132%, 27.456665%)" offset="0.25"/><stop stop-opacity="1" stop-color="rgb(99.243164%, 82.014465%, 27.224731%)" offset="0.261719"/><stop stop-opacity="1" stop-color="rgb(99.205017%, 81.817627%, 27.038574%)" offset="0.269531"/><stop stop-opacity="1" stop-color="rgb(99.16687%, 81.620789%, 26.853943%)" offset="0.277344"/><stop stop-opacity="1" stop-color="rgb(99.128723%, 81.425476%, 26.667786%)" offset="0.285156"/><stop stop-opacity="1" stop-color="rgb(99.092102%, 81.228638%, 26.483154%)" offset="0.292969"/><stop stop-opacity="1" stop-color="rgb(99.053955%, 81.031799%, 26.296997%)" offset="0.300781"/><stop stop-opacity="1" stop-color="rgb(99.015808%, 80.834961%, 26.112366%)" offset="0.308594"/><stop stop-opacity="1" stop-color="rgb(98.977661%, 80.638123%, 25.926208%)" offset="0.316406"/><stop stop-opacity="1" stop-color="rgb(98.939514%, 80.441284%, 25.741577%)" offset="0.324219"/><stop stop-opacity="1" stop-color="rgb(98.902893%, 80.244446%, 25.55542%)" offset="0.332031"/><stop stop-opacity="1" stop-color="rgb(98.864746%, 80.047607%, 25.370789%)" offset="0.339844"/><stop stop-opacity="1" stop-color="rgb(98.826599%, 79.852295%, 25.184631%)" offset="0.347656"/><stop stop-opacity="1" stop-color="rgb(98.788452%, 79.655457%, 25%)" offset="0.355469"/><stop stop-opacity="1" stop-color="rgb(98.751831%, 79.458618%, 24.813843%)" offset="0.363281"/><stop stop-opacity="1" stop-color="rgb(98.713684%, 79.26178%, 24.629211%)" offset="0.371094"/><stop stop-opacity="1" stop-color="rgb(98.675537%, 79.064941%, 24.443054%)" offset="0.378906"/><stop stop-opacity="1" stop-color="rgb(98.63739%, 78.868103%, 24.258423%)" offset="0.386719"/><stop stop-opacity="1" stop-color="rgb(98.599243%, 78.671265%, 24.072266%)" offset="0.394531"/><stop stop-opacity="1" stop-color="rgb(98.562622%, 78.474426%, 23.887634%)" offset="0.402344"/><stop stop-opacity="1" stop-color="rgb(98.524475%, 78.277588%, 23.701477%)" offset="0.410156"/><stop stop-opacity="1" stop-color="rgb(98.486328%, 78.082275%, 23.516846%)" offset="0.417969"/><stop stop-opacity="1" stop-color="rgb(98.448181%, 77.885437%, 23.330688%)" offset="0.425781"/><stop stop-opacity="1" stop-color="rgb(98.41156%, 77.688599%, 23.146057%)" offset="0.433594"/><stop stop-opacity="1" stop-color="rgb(98.373413%, 77.49176%, 22.961426%)" offset="0.441406"/><stop stop-opacity="1" stop-color="rgb(98.335266%, 77.294922%, 22.775269%)" offset="0.449219"/><stop stop-opacity="1" stop-color="rgb(98.297119%, 77.098083%, 22.590637%)" offset="0.457031"/><stop stop-opacity="1" stop-color="rgb(98.258972%, 76.901245%, 22.40448%)" offset="0.464844"/><stop stop-opacity="1" stop-color="rgb(98.222351%, 76.704407%, 22.219849%)" offset="0.472656"/><stop stop-opacity="1" stop-color="rgb(98.184204%, 76.507568%, 22.033691%)" offset="0.480469"/><stop stop-opacity="1" stop-color="rgb(98.146057%, 76.312256%, 21.84906%)" offset="0.488281"/><stop stop-opacity="1" stop-color="rgb(98.10791%, 76.115417%, 21.662903%)" offset="0.496094"/><stop stop-opacity="1" stop-color="rgb(98.060608%, 75.869751%, 21.430969%)" offset="0.503906"/><stop stop-opacity="1" stop-color="rgb(98.00415%, 75.57373%, 21.153259%)" offset="0.515625"/><stop stop-opacity="1" stop-color="rgb(97.947693%, 75.279236%, 20.875549%)" offset="0.527344"/><stop stop-opacity="1" stop-color="rgb(97.891235%, 74.984741%, 20.597839%)" offset="0.539062"/><stop stop-opacity="1" stop-color="rgb(97.834778%, 74.688721%, 20.318604%)" offset="0.550781"/><stop stop-opacity="1" stop-color="rgb(97.776794%, 74.394226%, 20.040894%)" offset="0.5625"/><stop stop-opacity="1" stop-color="rgb(97.720337%, 74.099731%, 19.763184%)" offset="0.574219"/><stop stop-opacity="1" stop-color="rgb(97.663879%, 73.803711%, 19.485474%)" offset="0.585938"/><stop stop-opacity="1" stop-color="rgb(97.607422%, 73.509216%, 19.206238%)" offset="0.597656"/><stop stop-opacity="1" stop-color="rgb(97.550964%, 73.214722%, 18.928528%)" offset="0.609375"/><stop stop-opacity="1" stop-color="rgb(97.494507%, 72.918701%, 18.650818%)" offset="0.621094"/><stop stop-opacity="1" stop-color="rgb(97.447205%, 72.673035%, 18.418884%)" offset="0.632812"/><stop stop-opacity="1" stop-color="rgb(97.409058%, 72.476196%, 18.234253%)" offset="0.640625"/><stop stop-opacity="1" stop-color="rgb(97.370911%, 72.279358%, 18.048096%)" offset="0.648438"/><stop stop-opacity="1" stop-color="rgb(97.332764%, 72.084045%, 17.863464%)" offset="0.65625"/><stop stop-opacity="1" stop-color="rgb(97.296143%, 71.887207%, 17.677307%)" offset="0.664062"/><stop stop-opacity="1" stop-color="rgb(97.257996%, 71.690369%, 17.492676%)" offset="0.671875"/><stop stop-opacity="1" stop-color="rgb(97.219849%, 71.49353%, 17.306519%)" offset="0.679688"/><stop stop-opacity="1" stop-color="rgb(97.181702%, 71.296692%, 17.121887%)" offset="0.6875"/><stop stop-opacity="1" stop-color="rgb(97.143555%, 71.099854%, 16.93573%)" offset="0.695312"/><stop stop-opacity="1" stop-color="rgb(97.106934%, 70.903015%, 16.751099%)" offset="0.703125"/><stop stop-opacity="1" stop-color="rgb(97.068787%, 70.706177%, 16.564941%)" offset="0.710938"/><stop stop-opacity="1" stop-color="rgb(97.03064%, 70.509338%, 16.38031%)" offset="0.71875"/><stop stop-opacity="1" stop-color="rgb(96.992493%, 70.314026%, 16.194153%)" offset="0.726562"/><stop stop-opacity="1" stop-color="rgb(96.955872%, 70.117188%, 16.009521%)" offset="0.734375"/><stop stop-opacity="1" stop-color="rgb(96.917725%, 69.920349%, 15.823364%)" offset="0.742188"/><stop stop-opacity="1" stop-color="rgb(96.879578%, 69.723511%, 15.638733%)" offset="0.75"/><stop stop-opacity="1" stop-color="rgb(96.832275%, 69.477844%, 15.406799%)" offset="0.757812"/><stop stop-opacity="1" stop-color="rgb(96.775818%, 69.18335%, 15.129089%)" offset="0.769531"/><stop stop-opacity="1" stop-color="rgb(96.71936%, 68.887329%, 14.849854%)" offset="0.78125"/><stop stop-opacity="1" stop-color="rgb(96.662903%, 68.592834%, 14.572144%)" offset="0.792969"/><stop stop-opacity="1" stop-color="rgb(96.604919%, 68.29834%, 14.294434%)" offset="0.804688"/><stop stop-opacity="1" stop-color="rgb(96.557617%, 68.051147%, 14.0625%)" offset="0.816406"/><stop stop-opacity="1" stop-color="rgb(96.520996%, 67.855835%, 13.877869%)" offset="0.824219"/><stop stop-opacity="1" stop-color="rgb(96.482849%, 67.658997%, 13.691711%)" offset="0.832031"/><stop stop-opacity="1" stop-color="rgb(96.444702%, 67.462158%, 13.50708%)" offset="0.839844"/><stop stop-opacity="1" stop-color="rgb(96.406555%, 67.26532%, 13.320923%)" offset="0.847656"/><stop stop-opacity="1" stop-color="rgb(96.369934%, 67.068481%, 13.136292%)" offset="0.855469"/><stop stop-opacity="1" stop-color="rgb(96.331787%, 66.871643%, 12.950134%)" offset="0.863281"/><stop stop-opacity="1" stop-color="rgb(96.29364%, 66.674805%, 12.765503%)" offset="0.871094"/><stop stop-opacity="1" stop-color="rgb(96.246338%, 66.429138%, 12.533569%)" offset="0.878906"/><stop stop-opacity="1" stop-color="rgb(96.18988%, 66.134644%, 12.255859%)" offset="0.890625"/><stop stop-opacity="1" stop-color="rgb(96.133423%, 65.840149%, 11.976624%)" offset="0.902344"/><stop stop-opacity="1" stop-color="rgb(96.086121%, 65.592957%, 11.74469%)" offset="0.914062"/><stop stop-opacity="1" stop-color="rgb(96.047974%, 65.396118%, 11.560059%)" offset="0.921875"/><stop stop-opacity="1" stop-color="rgb(96.009827%, 65.200806%, 11.373901%)" offset="0.929688"/><stop stop-opacity="1" stop-color="rgb(95.97168%, 65.003967%, 11.18927%)" offset="0.9375"/><stop stop-opacity="1" stop-color="rgb(95.924377%, 64.758301%, 10.957336%)" offset="0.945312"/><stop stop-opacity="1" stop-color="rgb(95.877075%, 64.512634%, 10.725403%)" offset="0.957031"/><stop stop-opacity="1" stop-color="rgb(95.840454%, 64.315796%, 10.540771%)" offset="0.964844"/><stop stop-opacity="1" stop-color="rgb(95.793152%, 64.070129%, 10.308838%)" offset="0.972656"/><stop stop-opacity="1" stop-color="rgb(95.74585%, 63.822937%, 10.076904%)" offset="0.984375"/><stop stop-opacity="1" stop-color="rgb(95.707703%, 63.627625%, 9.892273%)" offset="0.992188"/><stop stop-opacity="1" stop-color="rgb(95.689392%, 63.529968%, 9.799194%)" offset="1"/></radialGradient><clipPath id="f7417be5de"><path d="M 337.738281 337.738281 L 1192.261719 337.738281 L 1192.261719 1192.261719 L 337.738281 1192.261719 Z M 337.738281 337.738281 " clip-rule="nonzero"/></clipPath><clipPath id="143b1fd220"><path d="M 765 337.738281 C 529.03125 337.738281 337.738281 529.03125 337.738281 765 C 337.738281 1000.96875 529.03125 1192.261719 765 1192.261719 C 1000.96875 1192.261719 1192.261719 1000.96875 1192.261719 765 C 1192.261719 529.03125 1000.96875 337.738281 765 337.738281 Z M 765 337.738281 " clip-rule="nonzero"/></clipPath><clipPath id="b739678d84"><path d="M 0.738281 0.738281 L 855.261719 0.738281 L 855.261719 855.261719 L 0.738281 855.261719 Z M 0.738281 0.738281 " clip-rule="nonzero"/></clipPath><clipPath id="fa67b71d4d"><path d="M 428 0.738281 C 192.03125 0.738281 0.738281 192.03125 0.738281 428 C 0.738281 663.96875 192.03125 855.261719 428 855.261719 C 663.96875 855.261719 855.261719 663.96875 855.261719 428 C 855.261719 192.03125 663.96875 0.738281 428 0.738281 Z M 428 0.738281 " clip-rule="nonzero"/></clipPath><clipPath id="b697f5c4b9"><rect x="0" width="856" y="0" height="856"/></clipPath><clipPath id="64db9cd890"><rect x="0" width="84" y="0" height="390"/></clipPath></defs><g clip-path="url(#524b68d602)"><g clip-path="url(#c7b67f2be1)"><path fill="url(#88e769acbb)" d="M 74.863281 74.863281 L 74.863281 1454.863281 L 1454.863281 1454.863281 L 1454.863281 74.863281 Z M 74.863281 74.863281 " fill-rule="nonzero"/></g></g><path fill="#ffffff" d="M 1185.578125 764.863281 C 1185.578125 771.75 1185.40625 778.632812 1185.070312 785.507812 C 1184.730469 792.386719 1184.226562 799.25 1183.550781 806.101562 C 1182.875 812.953125 1182.035156 819.785156 1181.023438 826.597656 C 1180.011719 833.40625 1178.835938 840.1875 1177.492188 846.941406 C 1176.148438 853.695312 1174.640625 860.410156 1172.96875 867.089844 C 1171.296875 873.769531 1169.460938 880.402344 1167.460938 886.992188 C 1165.460938 893.578125 1163.304688 900.117188 1160.984375 906.597656 C 1158.664062 913.082031 1156.1875 919.503906 1153.550781 925.863281 C 1150.917969 932.226562 1148.128906 938.519531 1145.183594 944.742188 C 1142.238281 950.964844 1139.144531 957.113281 1135.898438 963.1875 C 1132.652344 969.257812 1129.261719 975.25 1125.722656 981.152344 C 1122.183594 987.058594 1118.5 992.875 1114.675781 998.601562 C 1110.847656 1004.324219 1106.886719 1009.953125 1102.785156 1015.484375 C 1098.683594 1021.011719 1094.449219 1026.4375 1090.078125 1031.761719 C 1085.710938 1037.085938 1081.214844 1042.296875 1076.59375 1047.398438 C 1071.96875 1052.5 1067.222656 1057.484375 1062.351562 1062.351562 C 1057.484375 1067.222656 1052.5 1071.96875 1047.398438 1076.59375 C 1042.296875 1081.214844 1037.085938 1085.710938 1031.761719 1090.078125 C 1026.4375 1094.449219 1021.011719 1098.683594 1015.484375 1102.785156 C 1009.953125 1106.886719 1004.324219 1110.847656 998.601562 1114.675781 C 992.875 1118.5 987.058594 1122.183594 981.152344 1125.722656 C 975.25 1129.261719 969.257812 1132.652344 963.1875 1135.898438 C 957.113281 1139.144531 950.964844 1142.238281 944.742188 1145.183594 C 938.519531 1148.128906 932.226562 1150.917969 925.863281 1153.550781 C 919.503906 1156.1875 913.082031 1158.664062 906.597656 1160.984375 C 900.117188 1163.304688 893.578125 1165.460938 886.992188 1167.460938 C 880.402344 1169.460938 873.769531 1171.296875 867.089844 1172.96875 C 860.410156 1174.640625 853.695312 1176.148438 846.941406 1177.492188 C 840.1875 1178.835938 833.40625 1180.011719 826.597656 1181.023438 C 819.785156 1182.035156 812.953125 1182.875 806.101562 1183.550781 C 799.25 1184.226562 792.386719 1184.730469 785.507812 1185.070312 C 778.632812 1185.40625 771.75 1185.578125 764.863281 1185.578125 C 757.980469 1185.578125 751.097656 1185.40625 744.222656 1185.070312 C 737.34375 1184.730469 730.480469 1184.226562 723.628906 1183.550781 C 716.777344 1182.875 709.945312 1182.035156 703.132812 1181.023438 C 696.324219 1180.011719 689.539062 1178.835938 682.789062 1177.492188 C 676.035156 1176.148438 669.320312 1174.640625 662.640625 1172.96875 C 655.960938 1171.296875 649.328125 1169.460938 642.738281 1167.460938 C 636.148438 1165.460938 629.613281 1163.304688 623.132812 1160.984375 C 616.648438 1158.664062 610.226562 1156.1875 603.867188 1153.550781 C 597.503906 1150.917969 591.210938 1148.128906 584.988281 1145.183594 C 578.761719 1142.238281 572.613281 1139.144531 566.542969 1135.898438 C 560.46875 1132.652344 554.480469 1129.261719 548.574219 1125.722656 C 542.667969 1122.183594 536.855469 1118.5 531.128906 1114.675781 C 525.40625 1110.847656 519.777344 1106.886719 514.246094 1102.785156 C 508.714844 1098.683594 503.289062 1094.449219 497.96875 1090.078125 C 492.644531 1085.710938 487.433594 1081.214844 482.332031 1076.59375 C 477.230469 1071.96875 472.246094 1067.222656 467.375 1062.351562 C 462.507812 1057.484375 457.761719 1052.5 453.136719 1047.398438 C 448.515625 1042.296875 444.019531 1037.085938 439.648438 1031.761719 C 435.28125 1026.4375 431.046875 1021.011719 426.945312 1015.484375 C 422.84375 1009.953125 418.878906 1004.324219 415.054688 998.601562 C 411.230469 992.875 407.546875 987.058594 404.007812 981.152344 C 400.46875 975.25 397.074219 969.257812 393.828125 963.1875 C 390.585938 957.113281 387.488281 950.964844 384.546875 944.742188 C 381.601562 938.519531 378.8125 932.226562 376.175781 925.863281 C 373.542969 919.503906 371.066406 913.082031 368.746094 906.597656 C 366.425781 900.117188 364.265625 893.578125 362.269531 886.992188 C 360.269531 880.402344 358.433594 873.769531 356.761719 867.089844 C 355.089844 860.410156 353.578125 853.695312 352.238281 846.941406 C 350.894531 840.1875 349.714844 833.40625 348.707031 826.597656 C 347.695312 819.785156 346.851562 812.953125 346.179688 806.101562 C 345.503906 799.25 344.996094 792.386719 344.660156 785.507812 C 344.320312 778.632812 344.152344 771.75 344.152344 764.863281 C 344.152344 757.980469 344.320312 751.097656 344.660156 744.222656 C 344.996094 737.34375 345.503906 730.480469 346.179688 723.628906 C 346.851562 716.777344 347.695312 709.945312 348.707031 703.132812 C 349.714844 696.324219 350.894531 689.539062 352.238281 682.789062 C 353.578125 676.035156 355.089844 669.320312 356.761719 662.640625 C 358.433594 655.960938 360.269531 649.328125 362.269531 642.738281 C 364.265625 636.148438 366.425781 629.613281 368.746094 623.132812 C 371.066406 616.648438 373.542969 610.226562 376.175781 603.863281 C 378.8125 597.503906 381.601562 591.210938 384.546875 584.988281 C 387.488281 578.761719 390.585938 572.613281 393.828125 566.542969 C 397.074219 560.46875 400.46875 554.480469 404.007812 548.574219 C 407.546875 542.667969 411.230469 536.855469 415.054688 531.128906 C 418.878906 525.40625 422.84375 519.777344 426.945312 514.246094 C 431.046875 508.714844 435.28125 503.289062 439.648438 497.96875 C 444.019531 492.644531 448.515625 487.433594 453.136719 482.332031 C 457.761719 477.230469 462.507812 472.246094 467.375 467.375 C 472.246094 462.507812 477.230469 457.761719 482.332031 453.136719 C 487.433594 448.515625 492.644531 444.019531 497.96875 439.648438 C 503.289062 435.28125 508.714844 431.046875 514.246094 426.945312 C 519.777344 422.84375 525.40625 418.878906 531.128906 415.054688 C 536.855469 411.230469 542.667969 407.546875 548.574219 404.007812 C 554.480469 400.46875 560.46875 397.074219 566.542969 393.828125 C 572.613281 390.585938 578.761719 387.488281 584.988281 384.546875 C 591.210938 381.601562 597.503906 378.8125 603.867188 376.175781 C 610.226562 373.542969 616.648438 371.066406 623.132812 368.746094 C 629.613281 366.425781 636.148438 364.265625 642.738281 362.269531 C 649.328125 360.269531 655.960938 358.433594 662.640625 356.761719 C 669.320312 355.089844 676.035156 353.578125 682.789062 352.238281 C 689.539062 350.894531 696.324219 349.714844 703.132812 348.707031 C 709.945312 347.695312 716.777344 346.851562 723.628906 346.179688 C 730.480469 345.503906 737.34375 344.996094 744.222656 344.660156 C 751.097656 344.320312 757.980469 344.152344 764.863281 344.152344 C 771.75 344.152344 778.632812 344.320312 785.507812 344.660156 C 792.386719 344.996094 799.25 345.503906 806.101562 346.179688 C 812.953125 346.851562 819.785156 347.695312 826.597656 348.707031 C 833.40625 349.714844 840.1875 350.894531 846.941406 352.238281 C 853.695312 353.578125 860.410156 355.089844 867.089844 356.761719 C 873.769531 358.433594 880.402344 360.269531 886.992188 362.269531 C 893.578125 364.265625 900.117188 366.425781 906.597656 368.746094 C 913.082031 371.066406 919.503906 373.542969 925.863281 376.175781 C 932.226562 378.8125 938.519531 381.601562 944.742188 384.546875 C 950.964844 387.488281 957.113281 390.585938 963.1875 393.828125 C 969.257812 397.074219 975.25 400.46875 981.152344 404.007812 C 987.058594 407.546875 992.875 411.230469 998.601562 415.054688 C 1004.324219 418.878906 1009.953125 422.84375 1015.484375 426.945312 C 1021.011719 431.046875 1026.4375 435.28125 1031.761719 439.648438 C 1037.085938 444.019531 1042.296875 448.515625 1047.398438 453.136719 C 1052.5 457.761719 1057.484375 462.507812 1062.351562 467.375 C 1067.222656 472.246094 1071.96875 477.230469 1076.59375 482.332031 C 1081.214844 487.433594 1085.710938 492.644531 1090.078125 497.96875 C 1094.449219 503.289062 1098.683594 508.714844 1102.785156 514.246094 C 1106.886719 519.777344 1110.847656 525.40625 1114.675781 531.128906 C 1118.5 536.855469 1122.183594 542.667969 1125.722656 548.574219 C 1129.261719 554.480469 1132.652344 560.46875 1135.898438 566.542969 C 1139.144531 572.613281 1142.238281 578.761719 1145.183594 584.988281 C 1148.128906 591.210938 1150.917969 597.503906 1153.550781 603.863281 C 1156.1875 610.226562 1158.664062 616.648438 1160.984375 623.132812 C 1163.304688 629.613281 1165.460938 636.148438 1167.460938 642.738281 C 1169.460938 649.328125 1171.296875 655.960938 1172.96875 662.640625 C 1174.640625 669.320312 1176.148438 676.035156 1177.492188 682.789062 C 1178.835938 689.539062 1180.011719 696.324219 1181.023438 703.132812 C 1182.035156 709.945312 1182.875 716.777344 1183.550781 723.628906 C 1184.226562 730.480469 1184.730469 737.34375 1185.070312 744.222656 C 1185.40625 751.097656 1185.578125 757.980469 1185.578125 764.863281 Z M 1185.578125 764.863281 " fill-opacity="1" fill-rule="nonzero"/><g fill="#231f20" fill-opacity="1"><g transform="translate(452.790475, 993.824415)"><g><path d="M 28.984375 0 L 28.984375 -46.953125 L 107.390625 -46.953125 L 107.390625 -262.84375 L 31.453125 -215.4375 L 31.453125 -265.09375 L 110.75 -316.546875 L 170.515625 -316.546875 L 170.515625 -46.953125 L 243.078125 -46.953125 L 243.078125 0 Z M 28.984375 0 "/></g></g></g><g fill="#231f20" fill-opacity="1"><g transform="translate(671.865346, 993.824415)"><g><path d="M 237.015625 -158.375 C 237.015625 -104.914062 227.835938 -64.40625 209.484375 -36.84375 C 191.140625 -9.28125 163.625 4.5 126.9375 4.5 C 54.445312 4.5 18.203125 -49.789062 18.203125 -158.375 C 18.203125 -196.269531 22.171875 -227.195312 30.109375 -251.15625 C 38.046875 -275.125 49.953125 -292.796875 65.828125 -304.171875 C 81.703125 -315.554688 102.671875 -321.25 128.734375 -321.25 C 166.171875 -321.25 193.578125 -307.695312 210.953125 -280.59375 C 228.328125 -253.488281 237.015625 -212.75 237.015625 -158.375 Z M 173.65625 -158.375 C 173.65625 -187.582031 172.234375 -210.273438 169.390625 -226.453125 C 166.546875 -242.628906 161.976562 -254.234375 155.6875 -261.265625 C 149.394531 -268.304688 140.257812 -271.828125 128.28125 -271.828125 C 115.550781 -271.828125 105.925781 -268.269531 99.40625 -261.15625 C 92.894531 -254.039062 88.253906 -242.429688 85.484375 -226.328125 C 82.710938 -210.234375 81.328125 -187.582031 81.328125 -158.375 C 81.328125 -129.476562 82.785156 -106.898438 85.703125 -90.640625 C 88.628906 -74.390625 93.273438 -62.742188 99.640625 -55.703125 C 106.003906 -48.671875 115.25 -45.15625 127.375 -45.15625 C 139.363281 -45.15625 148.613281 -48.859375 155.125 -56.265625 C 161.632812 -63.679688 166.347656 -75.550781 169.265625 -91.875 C 172.191406 -108.207031 173.65625 -130.375 173.65625 -158.375 Z M 173.65625 -158.375 "/></g></g></g><g fill="#231f20" fill-opacity="1"><g transform="translate(683.379695, 602.750736)"><g><path d="M 141.796875 -41.125 C 141.796875 -28.03125 136.882812 -17.898438 127.0625 -10.734375 C 117.25 -3.578125 103.609375 0 86.140625 0 L 14.015625 0 L 14.015625 -144.15625 L 80 -144.15625 C 97.601562 -144.15625 110.921875 -141.101562 119.953125 -135 C 128.992188 -128.894531 133.515625 -119.875 133.515625 -107.9375 C 133.515625 -99.75 131.242188 -92.84375 126.703125 -87.21875 C 122.171875 -81.59375 115.269531 -77.789062 106 -75.8125 C 117.65625 -74.445312 126.535156 -70.78125 132.640625 -64.8125 C 138.742188 -58.84375 141.796875 -50.945312 141.796875 -41.125 Z M 103.125 -103.84375 C 103.125 -110.320312 101.0625 -114.925781 96.9375 -117.65625 C 92.8125 -120.382812 86.691406 -121.75 78.578125 -121.75 L 44.203125 -121.75 L 44.203125 -86.046875 L 78.78125 -86.046875 C 87.300781 -86.046875 93.488281 -87.523438 97.34375 -90.484375 C 101.195312 -93.453125 103.125 -97.90625 103.125 -103.84375 Z M 111.515625 -43.484375 C 111.515625 -56.984375 101.832031 -63.734375 82.46875 -63.734375 L 44.203125 -63.734375 L 44.203125 -22.40625 L 83.59375 -22.40625 C 93.269531 -22.40625 100.34375 -24.160156 104.8125 -27.671875 C 109.28125 -31.179688 111.515625 -36.453125 111.515625 -43.484375 Z M 111.515625 -43.484375 "/></g></g></g><path fill="#ffffff" d="M 1163.480469 356.335938 C 1163.480469 359.570312 1163.328125 362.800781 1163.023438 366.03125 C 1162.722656 369.261719 1162.265625 372.488281 1161.660156 375.707031 C 1161.054688 378.925781 1160.296875 382.132812 1159.390625 385.332031 C 1158.484375 388.53125 1157.425781 391.71875 1156.222656 394.890625 C 1155.015625 398.0625 1153.660156 401.21875 1152.160156 404.355469 C 1150.65625 407.492188 1149.007812 410.609375 1147.214844 413.703125 C 1145.417969 416.800781 1143.480469 419.871094 1141.398438 422.914062 C 1139.316406 425.960938 1137.09375 428.976562 1134.726562 431.964844 C 1132.359375 434.953125 1129.855469 437.910156 1127.214844 440.835938 C 1124.570312 443.757812 1121.792969 446.648438 1118.878906 449.5 C 1115.964844 452.351562 1112.917969 455.164062 1109.738281 457.9375 C 1106.5625 460.714844 1103.253906 463.445312 1099.820312 466.132812 C 1096.386719 468.824219 1092.828125 471.46875 1089.144531 474.066406 C 1085.460938 476.664062 1081.660156 479.210938 1077.738281 481.714844 C 1073.816406 484.214844 1069.78125 486.660156 1065.628906 489.058594 C 1061.476562 491.453125 1057.214844 493.796875 1052.84375 496.082031 C 1048.472656 498.371094 1043.996094 500.601562 1039.417969 502.773438 C 1034.835938 504.945312 1030.15625 507.058594 1025.378906 509.109375 C 1020.597656 511.160156 1015.726562 513.148438 1010.761719 515.078125 C 1005.796875 517.003906 1000.742188 518.867188 995.605469 520.664062 C 990.464844 522.460938 985.242188 524.1875 979.941406 525.851562 C 974.636719 527.515625 969.261719 529.109375 963.808594 530.632812 C 958.355469 532.160156 952.835938 533.613281 947.25 534.996094 C 941.660156 536.378906 936.011719 537.6875 930.300781 538.925781 C 924.585938 540.164062 918.820312 541.328125 913 542.417969 C 907.179688 543.507812 901.3125 544.519531 895.398438 545.460938 C 889.480469 546.398438 883.523438 547.261719 877.527344 548.046875 C 871.53125 548.832031 865.503906 549.542969 859.4375 550.171875 C 853.375 550.804688 847.285156 551.355469 841.171875 551.832031 C 835.058594 552.304688 828.921875 552.703125 822.769531 553.019531 C 816.621094 553.335938 810.457031 553.574219 804.28125 553.730469 C 798.105469 553.890625 791.929688 553.96875 785.746094 553.96875 C 779.566406 553.96875 773.386719 553.890625 767.210938 553.730469 C 761.039062 553.574219 754.875 553.335938 748.722656 553.019531 C 742.570312 552.703125 736.4375 552.304688 730.324219 551.832031 C 724.207031 551.355469 718.117188 550.804688 712.054688 550.171875 C 705.992188 549.542969 699.960938 548.832031 693.964844 548.046875 C 687.96875 547.261719 682.011719 546.398438 676.097656 545.460938 C 670.179688 544.519531 664.3125 543.507812 658.492188 542.417969 C 652.671875 541.328125 646.90625 540.164062 641.195312 538.925781 C 635.484375 537.6875 629.835938 536.378906 624.246094 534.996094 C 618.65625 533.613281 613.136719 532.160156 607.683594 530.632812 C 602.234375 529.109375 596.855469 527.515625 591.554688 525.851562 C 586.25 524.1875 581.03125 522.460938 575.890625 520.664062 C 570.75 518.867188 565.699219 517.003906 560.730469 515.078125 C 555.765625 513.148438 550.894531 511.160156 546.117188 509.109375 C 541.335938 507.058594 536.65625 504.945312 532.078125 502.773438 C 527.496094 500.601562 523.019531 498.371094 518.648438 496.082031 C 514.277344 493.796875 510.015625 491.453125 505.867188 489.058594 C 501.714844 486.660156 497.679688 484.214844 493.757812 481.714844 C 489.835938 479.210938 486.03125 476.664062 482.351562 474.066406 C 478.667969 471.46875 475.109375 468.824219 471.675781 466.132812 C 468.238281 463.445312 464.933594 460.714844 461.753906 457.9375 C 458.578125 455.164062 455.53125 452.351562 452.617188 449.5 C 449.703125 446.648438 446.925781 443.757812 444.28125 440.835938 C 441.636719 437.910156 439.132812 434.953125 436.769531 431.964844 C 434.402344 428.976562 432.179688 425.960938 430.09375 422.914062 C 428.011719 419.871094 426.074219 416.800781 424.28125 413.703125 C 422.484375 410.609375 420.835938 407.492188 419.335938 404.355469 C 417.832031 401.21875 416.480469 398.0625 415.273438 394.890625 C 414.066406 391.71875 413.011719 388.53125 412.101562 385.332031 C 411.195312 382.132812 410.441406 378.925781 409.832031 375.707031 C 409.226562 372.488281 408.773438 369.261719 408.46875 366.03125 C 408.167969 362.800781 408.015625 359.570312 408.015625 356.335938 C 408.015625 353.097656 408.167969 349.867188 408.46875 346.636719 C 408.773438 343.40625 409.226562 340.179688 409.832031 336.960938 C 410.441406 333.742188 411.195312 330.535156 412.101562 327.335938 C 413.011719 324.136719 414.066406 320.949219 415.273438 317.777344 C 416.480469 314.605469 417.832031 311.449219 419.335938 308.3125 C 420.835938 305.175781 422.484375 302.058594 424.28125 298.964844 C 426.074219 295.867188 428.011719 292.796875 430.09375 289.753906 C 432.179688 286.707031 434.402344 283.691406 436.769531 280.703125 C 439.132812 277.714844 441.636719 274.757812 444.28125 271.832031 C 446.925781 268.910156 449.703125 266.023438 452.617188 263.167969 C 455.53125 260.316406 458.578125 257.503906 461.753906 254.730469 C 464.933594 251.953125 468.238281 249.222656 471.675781 246.535156 C 475.109375 243.84375 478.667969 241.199219 482.351562 238.601562 C 486.03125 236.003906 489.835938 233.457031 493.757812 230.953125 C 497.679688 228.453125 501.714844 226.007812 505.867188 223.609375 C 510.015625 221.214844 514.277344 218.871094 518.648438 216.585938 C 523.019531 214.296875 527.496094 212.066406 532.078125 209.894531 C 536.65625 207.722656 541.335938 205.609375 546.117188 203.558594 C 550.894531 201.507812 555.765625 199.519531 560.730469 197.589844 C 565.699219 195.664062 570.75 193.800781 575.890625 192.003906 C 581.03125 190.207031 586.25 188.480469 591.554688 186.816406 C 596.855469 185.152344 602.234375 183.558594 607.683594 182.035156 C 613.136719 180.511719 618.65625 179.054688 624.246094 177.671875 C 629.835938 176.289062 635.484375 174.980469 641.195312 173.742188 C 646.90625 172.503906 652.671875 171.339844 658.492188 170.25 C 664.3125 169.160156 670.179688 168.148438 676.097656 167.207031 C 682.011719 166.269531 687.96875 165.40625 693.964844 164.621094 C 699.960938 163.835938 705.992188 163.125 712.054688 162.496094 C 718.117188 161.863281 724.207031 161.3125 730.324219 160.835938 C 736.4375 160.363281 742.570312 159.964844 748.722656 159.648438 C 754.875 159.332031 761.039062 159.09375 767.210938 158.9375 C 773.386719 158.777344 779.566406 158.699219 785.746094 158.699219 C 791.929688 158.699219 798.105469 158.777344 804.28125 158.9375 C 810.457031 159.09375 816.621094 159.332031 822.769531 159.648438 C 828.921875 159.964844 835.058594 160.363281 841.171875 160.835938 C 847.285156 161.3125 853.375 161.863281 859.4375 162.496094 C 865.503906 163.125 871.53125 163.835938 877.527344 164.621094 C 883.523438 165.40625 889.480469 166.269531 895.398438 167.207031 C 901.3125 168.148438 907.179688 169.160156 913 170.25 C 918.820312 171.339844 924.585938 172.503906 930.300781 173.742188 C 936.011719 174.980469 941.660156 176.289062 947.25 177.671875 C 952.835938 179.054688 958.355469 180.511719 963.808594 182.035156 C 969.261719 183.558594 974.636719 185.152344 979.941406 186.816406 C 985.242188 188.480469 990.464844 190.207031 995.605469 192.003906 C 1000.742188 193.800781 1005.796875 195.664062 1010.761719 197.589844 C 1015.726562 199.519531 1020.597656 201.507812 1025.378906 203.558594 C 1030.15625 205.609375 1034.835938 207.722656 1039.417969 209.894531 C 1043.996094 212.066406 1048.472656 214.296875 1052.84375 216.585938 C 1057.214844 218.871094 1061.476562 221.214844 1065.628906 223.609375 C 1069.78125 226.007812 1073.816406 228.453125 1077.738281 230.953125 C 1081.660156 233.457031 1085.460938 236.003906 1089.144531 238.601562 C 1092.828125 241.199219 1096.386719 243.84375 1099.820312 246.535156 C 1103.253906 249.222656 1106.5625 251.953125 1109.738281 254.730469 C 1112.917969 257.503906 1115.964844 260.316406 1118.878906 263.167969 C 1121.792969 266.023438 1124.570312 268.910156 1127.210938 271.832031 C 1129.855469 274.757812 1132.359375 277.714844 1134.726562 280.703125 C 1137.089844 283.691406 1139.316406 286.707031 1141.398438 289.753906 C 1143.480469 292.796875 1145.417969 295.867188 1147.214844 298.964844 C 1149.007812 302.058594 1150.65625 305.175781 1152.160156 308.3125 C 1153.660156 311.449219 1155.015625 314.605469 1156.222656 317.777344 C 1157.425781 320.949219 1158.484375 324.136719 1159.390625 327.335938 C 1160.296875 330.535156 1161.054688 333.742188 1161.660156 336.960938 C 1162.265625 340.179688 1162.722656 343.40625 1163.023438 346.636719 C 1163.328125 349.867188 1163.480469 353.097656 1163.480469 356.335938 Z M 1163.480469 356.335938 " fill-opacity="0.26" fill-rule="nonzero"/><path fill="#ffffff" d="M 392.050781 452.957031 C 392.050781 454.503906 391.972656 456.046875 391.820312 457.585938 C 391.671875 459.125 391.445312 460.652344 391.140625 462.171875 C 390.839844 463.6875 390.464844 465.1875 390.015625 466.667969 C 389.566406 468.148438 389.046875 469.601562 388.453125 471.03125 C 387.863281 472.460938 387.203125 473.859375 386.472656 475.222656 C 385.742188 476.585938 384.949219 477.910156 384.089844 479.199219 C 383.230469 480.484375 382.308594 481.726562 381.328125 482.921875 C 380.347656 484.117188 379.308594 485.261719 378.214844 486.355469 C 377.121094 487.449219 375.976562 488.488281 374.78125 489.46875 C 373.585938 490.449219 372.34375 491.371094 371.058594 492.230469 C 369.769531 493.089844 368.445312 493.882812 367.082031 494.613281 C 365.71875 495.34375 364.320312 496.003906 362.890625 496.59375 C 361.460938 497.1875 360.007812 497.707031 358.527344 498.15625 C 357.046875 498.605469 355.546875 498.980469 354.03125 499.28125 C 352.511719 499.585938 350.984375 499.8125 349.445312 499.960938 C 347.90625 500.113281 346.363281 500.191406 344.816406 500.191406 C 343.269531 500.191406 341.726562 500.113281 340.1875 499.960938 C 338.644531 499.8125 337.117188 499.585938 335.601562 499.28125 C 334.082031 498.980469 332.585938 498.605469 331.105469 498.15625 C 329.625 497.707031 328.167969 497.1875 326.738281 496.59375 C 325.3125 496.003906 323.914062 495.34375 322.550781 494.613281 C 321.183594 493.882812 319.859375 493.089844 318.574219 492.230469 C 317.289062 491.371094 316.046875 490.449219 314.851562 489.46875 C 313.65625 488.488281 312.511719 487.449219 311.417969 486.355469 C 310.324219 485.261719 309.285156 484.117188 308.304688 482.921875 C 307.320312 481.726562 306.402344 480.484375 305.542969 479.199219 C 304.683594 477.910156 303.886719 476.585938 303.160156 475.222656 C 302.429688 473.859375 301.769531 472.460938 301.175781 471.03125 C 300.585938 469.601562 300.066406 468.148438 299.617188 466.667969 C 299.167969 465.1875 298.792969 463.6875 298.488281 462.171875 C 298.1875 460.652344 297.960938 459.125 297.808594 457.585938 C 297.65625 456.046875 297.582031 454.503906 297.582031 452.957031 C 297.582031 451.410156 297.65625 449.867188 297.808594 448.328125 C 297.960938 446.785156 298.1875 445.257812 298.488281 443.742188 C 298.792969 442.222656 299.167969 440.726562 299.617188 439.246094 C 300.066406 437.765625 300.585938 436.308594 301.175781 434.878906 C 301.769531 433.453125 302.429688 432.054688 303.160156 430.691406 C 303.886719 429.324219 304.683594 428 305.542969 426.714844 C 306.402344 425.429688 307.320312 424.1875 308.304688 422.992188 C 309.285156 421.796875 310.324219 420.652344 311.417969 419.558594 C 312.511719 418.464844 313.65625 417.425781 314.851562 416.445312 C 316.046875 415.460938 317.289062 414.542969 318.574219 413.683594 C 319.859375 412.824219 321.183594 412.027344 322.550781 411.300781 C 323.914062 410.570312 325.3125 409.910156 326.738281 409.316406 C 328.167969 408.726562 329.625 408.207031 331.105469 407.757812 C 332.585938 407.308594 334.082031 406.933594 335.601562 406.628906 C 337.117188 406.328125 338.644531 406.101562 340.1875 405.949219 C 341.726562 405.796875 343.269531 405.722656 344.816406 405.722656 C 346.363281 405.722656 347.90625 405.796875 349.445312 405.949219 C 350.984375 406.101562 352.511719 406.328125 354.03125 406.628906 C 355.546875 406.933594 357.046875 407.308594 358.527344 407.757812 C 360.007812 408.207031 361.460938 408.726562 362.890625 409.316406 C 364.320312 409.910156 365.71875 410.570312 367.082031 411.300781 C 368.445312 412.027344 369.769531 412.824219 371.058594 413.683594 C 372.34375 414.542969 373.585938 415.460938 374.78125 416.445312 C 375.976562 417.425781 377.121094 418.464844 378.214844 419.558594 C 379.308594 420.652344 380.347656 421.796875 381.328125 422.992188 C 382.308594 424.1875 383.230469 425.429688 384.089844 426.714844 C 384.949219 428 385.742188 429.324219 386.472656 430.691406 C 387.203125 432.054688 387.863281 433.453125 388.453125 434.878906 C 389.046875 436.308594 389.566406 437.765625 390.015625 439.246094 C 390.464844 440.726562 390.839844 442.222656 391.140625 443.742188 C 391.445312 445.257812 391.671875 446.785156 391.820312 448.328125 C 391.972656 449.867188 392.050781 451.410156 392.050781 452.957031 Z M 392.050781 452.957031 " fill-opacity="0.26" fill-rule="nonzero"/><path fill="#ffffff" d="M 281.921875 547.175781 C 281.921875 548.074219 281.875 548.972656 281.789062 549.867188 C 281.699219 550.765625 281.566406 551.652344 281.390625 552.535156 C 281.214844 553.417969 280.996094 554.292969 280.738281 555.152344 C 280.476562 556.015625 280.171875 556.859375 279.828125 557.691406 C 279.484375 558.523438 279.097656 559.335938 278.675781 560.132812 C 278.25 560.925781 277.789062 561.695312 277.289062 562.445312 C 276.789062 563.191406 276.253906 563.914062 275.679688 564.609375 C 275.109375 565.304688 274.507812 565.972656 273.871094 566.609375 C 273.234375 567.246094 272.566406 567.847656 271.871094 568.421875 C 271.175781 568.992188 270.453125 569.527344 269.707031 570.027344 C 268.957031 570.527344 268.1875 570.988281 267.390625 571.414062 C 266.597656 571.839844 265.785156 572.222656 264.953125 572.566406 C 264.121094 572.910156 263.277344 573.214844 262.414062 573.476562 C 261.554688 573.738281 260.679688 573.957031 259.796875 574.132812 C 258.914062 574.304688 258.027344 574.4375 257.128906 574.527344 C 256.234375 574.613281 255.335938 574.660156 254.4375 574.660156 C 253.535156 574.660156 252.636719 574.613281 251.742188 574.527344 C 250.847656 574.4375 249.957031 574.304688 249.074219 574.132812 C 248.191406 573.957031 247.320312 573.738281 246.457031 573.476562 C 245.597656 573.214844 244.75 572.910156 243.917969 572.566406 C 243.085938 572.222656 242.273438 571.839844 241.480469 571.414062 C 240.6875 570.988281 239.914062 570.527344 239.167969 570.027344 C 238.417969 569.527344 237.695312 568.992188 237 568.421875 C 236.304688 567.847656 235.636719 567.246094 235.003906 566.609375 C 234.367188 565.972656 233.761719 565.304688 233.191406 564.609375 C 232.621094 563.914062 232.085938 563.191406 231.585938 562.445312 C 231.082031 561.695312 230.621094 560.925781 230.199219 560.132812 C 229.773438 559.335938 229.390625 558.523438 229.042969 557.691406 C 228.699219 556.859375 228.398438 556.015625 228.136719 555.152344 C 227.875 554.292969 227.65625 553.417969 227.480469 552.535156 C 227.304688 551.652344 227.171875 550.765625 227.085938 549.867188 C 226.996094 548.972656 226.953125 548.074219 226.953125 547.175781 C 226.953125 546.273438 226.996094 545.378906 227.085938 544.480469 C 227.171875 543.585938 227.304688 542.695312 227.480469 541.8125 C 227.65625 540.929688 227.875 540.058594 228.136719 539.195312 C 228.398438 538.335938 228.699219 537.488281 229.042969 536.65625 C 229.390625 535.824219 229.773438 535.011719 230.199219 534.21875 C 230.621094 533.425781 231.082031 532.652344 231.585938 531.90625 C 232.085938 531.15625 232.621094 530.433594 233.191406 529.738281 C 233.761719 529.042969 234.367188 528.378906 235.003906 527.742188 C 235.636719 527.105469 236.304688 526.5 237 525.929688 C 237.695312 525.359375 238.417969 524.824219 239.167969 524.324219 C 239.914062 523.824219 240.6875 523.359375 241.480469 522.9375 C 242.273438 522.511719 243.085938 522.128906 243.917969 521.785156 C 244.75 521.4375 245.597656 521.136719 246.457031 520.875 C 247.320312 520.613281 248.191406 520.394531 249.074219 520.21875 C 249.957031 520.042969 250.847656 519.910156 251.742188 519.824219 C 252.636719 519.734375 253.535156 519.691406 254.4375 519.691406 C 255.335938 519.691406 256.234375 519.734375 257.128906 519.824219 C 258.027344 519.910156 258.914062 520.042969 259.796875 520.21875 C 260.679688 520.394531 261.554688 520.613281 262.414062 520.875 C 263.277344 521.136719 264.121094 521.4375 264.953125 521.78125 C 265.785156 522.128906 266.597656 522.511719 267.390625 522.9375 C 268.1875 523.359375 268.957031 523.824219 269.707031 524.324219 C 270.453125 524.824219 271.175781 525.359375 271.871094 525.929688 C 272.566406 526.5 273.234375 527.105469 273.871094 527.742188 C 274.507812 528.378906 275.109375 529.042969 275.679688 529.738281 C 276.253906 530.433594 276.789062 531.15625 277.289062 531.90625 C 277.789062 532.652344 278.25 533.425781 278.675781 534.21875 C 279.097656 535.011719 279.484375 535.824219 279.828125 536.65625 C 280.171875 537.488281 280.476562 538.335938 280.738281 539.195312 C 280.996094 540.058594 281.214844 540.929688 281.390625 541.8125 C 281.566406 542.695312 281.699219 543.585938 281.789062 544.480469 C 281.875 545.378906 281.921875 546.273438 281.921875 547.175781 Z M 281.921875 547.175781 " fill-opacity="0.26" fill-rule="nonzero"/><g clip-path="url(#f7417be5de)"><g clip-path="url(#143b1fd220)"><g transform="matrix(1, 0, 0, 1, 337, 337)"><g clip-path="url(#b697f5c4b9)"><g clip-path="url(#b739678d84)"><g clip-path="url(#fa67b71d4d)"><path fill="#ffffff" d="M 0.738281 0.738281 L 855.261719 0.738281 L 855.261719 855.261719 L 0.738281 855.261719 Z M 0.738281 0.738281 " fill-opacity="1" fill-rule="nonzero"/></g></g></g></g></g></g><g transform="matrix(1, 0, 0, 1, 723, 304)"><g clip-path="url(#64db9cd890)"><g fill="#232323" fill-opacity="1"><g transform="translate(1.054776, 291.623376)"><g><path d="M 64.671875 -194.875 L 64.671875 0 L 17.203125 0 L 17.203125 -194.875 Z M 64.671875 -194.875 "/></g></g></g></g></g></svg>